<svg width="20" height="21" viewBox="0 0 20 21" fill="none" xmlns="http://www.w3.org/2000/svg">
<g clip-path="url(#clip0_2018_36591)">
<g clip-path="url(#clip1_2018_36591)">
<path d="M18.7875 0.917969H1.2125C0.545833 0.917969 0 1.47482 0 2.15494V11.7361C0 12.4163 0.545833 12.9731 1.2125 12.9731H18.7875C19.4583 12.9731 20 12.4205 20 11.7361V2.15494C20 1.47482 19.4583 0.917969 18.7875 0.917969ZM2.51667 12.3568L3.00833 10.5034H16.9917L17.4833 12.3568H2.51667ZM19.3917 11.7404C19.3917 12.0805 19.1208 12.361 18.7875 12.361H18.1125L17.5167 10.1166C17.4792 9.98058 17.3625 9.88707 17.225 9.88707H2.775C2.6375 9.88707 2.51667 9.98058 2.48333 10.1166L1.8875 12.361H1.2125C0.879167 12.361 0.608333 12.0847 0.608333 11.7404V2.15494C0.608333 1.81488 0.879167 1.53433 1.2125 1.53433H18.7875C19.1208 1.53433 19.3917 1.81063 19.3917 2.15494V11.7361V11.7404Z" fill="#220101"/>
<path d="M6.8832 15.9698C6.99987 15.8465 6.9957 15.651 6.87487 15.532C6.75404 15.413 6.56237 15.4172 6.4457 15.5405C5.81237 16.2121 5.81237 17.3045 6.4457 17.9804C6.8582 18.4182 6.8582 19.1239 6.4457 19.5617C6.32904 19.685 6.3332 19.8805 6.45404 19.9995C6.51237 20.059 6.58737 20.0845 6.66237 20.0845C6.73737 20.0845 6.8207 20.0548 6.87904 19.991C7.51237 19.3194 7.51237 18.227 6.87904 17.5511C6.46654 17.1133 6.46654 16.4076 6.87904 15.9698H6.8832Z" fill="#220101"/>
<path d="M10.2167 15.9698C10.3334 15.8465 10.3292 15.651 10.2084 15.532C10.0875 15.413 9.89587 15.4172 9.7792 15.5405C9.14587 16.2121 9.14587 17.3045 9.7792 17.9804C10.1917 18.4182 10.1917 19.1239 9.7792 19.5617C9.66253 19.685 9.6667 19.8805 9.78753 19.9995C9.84587 20.059 9.92087 20.0845 9.99587 20.0845C10.075 20.0845 10.1542 20.0548 10.2125 19.991C10.8459 19.3194 10.8459 18.227 10.2125 17.5511C9.80003 17.1133 9.80003 16.4076 10.2125 15.9698H10.2167Z" fill="#220101"/>
<path d="M3.5502 15.9698C3.66686 15.8465 3.6627 15.651 3.54186 15.532C3.42103 15.413 3.22936 15.4172 3.1127 15.5405C2.47936 16.2121 2.47936 17.3045 3.1127 17.9804C3.5252 18.4182 3.5252 19.1239 3.1127 19.5617C2.99603 19.685 3.0002 19.8805 3.12103 19.9995C3.17936 20.059 3.25436 20.0845 3.32936 20.0845C3.40853 20.0845 3.4877 20.0548 3.54603 19.991C4.17936 19.3194 4.17936 18.227 3.54603 17.5511C3.13353 17.1133 3.13353 16.4076 3.54603 15.9698H3.5502Z" fill="#220101"/>
<path d="M13.5502 15.9698C13.6669 15.8465 13.6627 15.651 13.5419 15.532C13.421 15.413 13.2294 15.4172 13.1127 15.5405C12.4794 16.2121 12.4794 17.3045 13.1127 17.9804C13.5252 18.4182 13.5252 19.1239 13.1127 19.5617C12.996 19.685 13.0002 19.8805 13.121 19.9995C13.1794 20.059 13.2544 20.0845 13.3294 20.0845C13.4044 20.0845 13.4877 20.0548 13.546 19.991C14.1794 19.3194 14.1794 18.227 13.546 17.5511C13.1335 17.1133 13.1335 16.4076 13.546 15.9698H13.5502Z" fill="#220101"/>
<path d="M16.8832 15.9698C16.9999 15.8465 16.9957 15.651 16.8749 15.532C16.754 15.413 16.5624 15.4172 16.4457 15.5405C15.8124 16.2121 15.8124 17.3045 16.4457 17.9804C16.8582 18.4182 16.8582 19.1239 16.4457 19.5617C16.329 19.685 16.3332 19.8805 16.454 19.9995C16.5124 20.059 16.5874 20.0845 16.6624 20.0845C16.7415 20.0845 16.8207 20.0548 16.879 19.991C17.5124 19.3194 17.5124 18.227 16.879 17.5511C16.4665 17.1133 16.4665 16.4076 16.879 15.9698H16.8832Z" fill="#220101"/>
<path d="M17.879 7.71875H17.2749C17.1082 7.71875 16.9707 7.85902 16.9707 8.02906C16.9707 8.19909 17.1082 8.33936 17.2749 8.33936H17.879C18.0457 8.33936 18.1832 8.19909 18.1832 8.02906C18.1832 7.85902 18.0457 7.71875 17.879 7.71875Z" fill="#220101"/>
<path d="M17.879 5.55469H17.2749C17.1082 5.55469 16.9707 5.69496 16.9707 5.86499C16.9707 6.03502 17.1082 6.1753 17.2749 6.1753H17.879C18.0457 6.1753 18.1832 6.03927 18.1832 5.86499C18.1832 5.69071 18.0457 5.55469 17.879 5.55469Z" fill="#220101"/>
<path d="M17.879 3.39062H17.2749C17.1082 3.39062 16.9707 3.5309 16.9707 3.70093C16.9707 3.87096 17.1082 4.01124 17.2749 4.01124H17.879C18.0457 4.01124 18.1832 3.87521 18.1832 3.70093C18.1832 3.52665 18.0457 3.39062 17.879 3.39062Z" fill="#220101"/>
<path d="M15.7586 7.71875H2.12106C1.95439 7.71875 1.81689 7.85902 1.81689 8.02906C1.81689 8.19909 1.95439 8.33936 2.12106 8.33936H15.7586C15.9252 8.33936 16.0627 8.19909 16.0627 8.02906C16.0627 7.85902 15.9252 7.71875 15.7586 7.71875Z" fill="#220101"/>
<path d="M15.7586 5.55469H2.12106C1.95439 5.55469 1.81689 5.69496 1.81689 5.86499C1.81689 6.03502 1.95439 6.1753 2.12106 6.1753H15.7586C15.9252 6.1753 16.0627 6.03927 16.0627 5.86499C16.0627 5.69071 15.9252 5.55469 15.7586 5.55469Z" fill="#220101"/>
<path d="M15.7586 3.39062H2.12106C1.95439 3.39062 1.81689 3.5309 1.81689 3.70093C1.81689 3.87096 1.95439 4.01124 2.12106 4.01124H15.7586C15.9252 4.01124 16.0627 3.87521 16.0627 3.70093C16.0627 3.52665 15.9252 3.39062 15.7586 3.39062Z" fill="#220101"/>
</g>
</g>
<defs>
<clipPath id="clip0_2018_36591">
<rect width="20" height="20" fill="white" transform="translate(0 0.5)"/>
</clipPath>
<clipPath id="clip1_2018_36591">
<rect width="20" height="19.1667" fill="white" transform="translate(0 0.917969)"/>
</clipPath>
</defs>
</svg>
