<svg width="20" height="21" viewBox="0 0 20 21" fill="none" xmlns="http://www.w3.org/2000/svg">
<g clip-path="url(#clip0_2140_42533)">
<path d="M18.7875 0.916016H1.2125C0.545833 0.916016 0 1.47286 0 2.15299V11.7342C0 12.4143 0.545833 12.9712 1.2125 12.9712H18.7875C19.4583 12.9712 20 12.4186 20 11.7342V2.15299C20 1.47286 19.4583 0.916016 18.7875 0.916016ZM2.51667 12.3548L3.00833 10.5015H16.9917L17.4833 12.3548H2.51667ZM19.3917 11.7384C19.3917 12.0785 19.1208 12.3591 18.7875 12.3591H18.1125L17.5167 10.1147C17.4792 9.97863 17.3625 9.88512 17.225 9.88512H2.775C2.6375 9.88512 2.51667 9.97863 2.48333 10.1147L1.8875 12.3591H1.2125C0.879167 12.3591 0.608333 12.0828 0.608333 11.7384V2.15299C0.608333 1.81293 0.879167 1.53238 1.2125 1.53238H18.7875C19.1208 1.53238 19.3917 1.80867 19.3917 2.15299V11.7342V11.7384Z" fill="#222222"/>
<path d="M6.8832 15.9679C6.99987 15.8446 6.9957 15.6491 6.87487 15.53C6.75404 15.411 6.56237 15.4153 6.4457 15.5385C5.81237 16.2102 5.81237 17.3026 6.4457 17.9785C6.8582 18.4163 6.8582 19.1219 6.4457 19.5597C6.32904 19.683 6.3332 19.8786 6.45404 19.9976C6.51237 20.0571 6.58737 20.0826 6.66237 20.0826C6.73737 20.0826 6.8207 20.0528 6.87904 19.9891C7.51237 19.3175 7.51237 18.225 6.87904 17.5491C6.46654 17.1113 6.46654 16.4057 6.87904 15.9679H6.8832Z" fill="#222222"/>
<path d="M10.2167 15.9679C10.3334 15.8446 10.3292 15.6491 10.2084 15.53C10.0875 15.411 9.89587 15.4153 9.7792 15.5385C9.14587 16.2102 9.14587 17.3026 9.7792 17.9785C10.1917 18.4163 10.1917 19.1219 9.7792 19.5597C9.66253 19.683 9.6667 19.8786 9.78753 19.9976C9.84587 20.0571 9.92087 20.0826 9.99587 20.0826C10.075 20.0826 10.1542 20.0528 10.2125 19.9891C10.8459 19.3175 10.8459 18.225 10.2125 17.5491C9.80003 17.1113 9.80003 16.4057 10.2125 15.9679H10.2167Z" fill="#222222"/>
<path d="M3.5502 15.9679C3.66686 15.8446 3.6627 15.6491 3.54186 15.53C3.42103 15.411 3.22936 15.4153 3.1127 15.5385C2.47936 16.2102 2.47936 17.3026 3.1127 17.9785C3.5252 18.4163 3.5252 19.1219 3.1127 19.5597C2.99603 19.683 3.0002 19.8786 3.12103 19.9976C3.17936 20.0571 3.25436 20.0826 3.32936 20.0826C3.40853 20.0826 3.4877 20.0528 3.54603 19.9891C4.17936 19.3175 4.17936 18.225 3.54603 17.5491C3.13353 17.1113 3.13353 16.4057 3.54603 15.9679H3.5502Z" fill="#222222"/>
<path d="M13.5502 15.9679C13.6669 15.8446 13.6627 15.6491 13.5419 15.53C13.421 15.411 13.2294 15.4153 13.1127 15.5385C12.4794 16.2102 12.4794 17.3026 13.1127 17.9785C13.5252 18.4163 13.5252 19.1219 13.1127 19.5597C12.996 19.683 13.0002 19.8786 13.121 19.9976C13.1794 20.0571 13.2544 20.0826 13.3294 20.0826C13.4044 20.0826 13.4877 20.0528 13.546 19.9891C14.1794 19.3175 14.1794 18.225 13.546 17.5491C13.1335 17.1113 13.1335 16.4057 13.546 15.9679H13.5502Z" fill="#222222"/>
<path d="M16.8832 15.9679C16.9999 15.8446 16.9957 15.6491 16.8749 15.53C16.754 15.411 16.5624 15.4153 16.4457 15.5385C15.8124 16.2102 15.8124 17.3026 16.4457 17.9785C16.8582 18.4163 16.8582 19.1219 16.4457 19.5597C16.329 19.683 16.3332 19.8786 16.454 19.9976C16.5124 20.0571 16.5874 20.0826 16.6624 20.0826C16.7415 20.0826 16.8207 20.0528 16.879 19.9891C17.5124 19.3175 17.5124 18.225 16.879 17.5491C16.4665 17.1113 16.4665 16.4057 16.879 15.9679H16.8832Z" fill="#222222"/>
<path d="M17.879 7.7168H17.2749C17.1082 7.7168 16.9707 7.85707 16.9707 8.0271C16.9707 8.19713 17.1082 8.33741 17.2749 8.33741H17.879C18.0457 8.33741 18.1832 8.19713 18.1832 8.0271C18.1832 7.85707 18.0457 7.7168 17.879 7.7168Z" fill="#222222"/>
<path d="M17.879 5.55273H17.2749C17.1082 5.55273 16.9707 5.69301 16.9707 5.86304C16.9707 6.03307 17.1082 6.17335 17.2749 6.17335H17.879C18.0457 6.17335 18.1832 6.03732 18.1832 5.86304C18.1832 5.68876 18.0457 5.55273 17.879 5.55273Z" fill="#222222"/>
<path d="M17.879 3.39062H17.2749C17.1082 3.39062 16.9707 3.5309 16.9707 3.70093C16.9707 3.87096 17.1082 4.01124 17.2749 4.01124H17.879C18.0457 4.01124 18.1832 3.87521 18.1832 3.70093C18.1832 3.52665 18.0457 3.39062 17.879 3.39062Z" fill="#222222"/>
<path d="M15.7586 7.7168H2.12106C1.95439 7.7168 1.81689 7.85707 1.81689 8.0271C1.81689 8.19713 1.95439 8.33741 2.12106 8.33741H15.7586C15.9252 8.33741 16.0627 8.19713 16.0627 8.0271C16.0627 7.85707 15.9252 7.7168 15.7586 7.7168Z" fill="#222222"/>
<path d="M15.7586 5.55273H2.12106C1.95439 5.55273 1.81689 5.69301 1.81689 5.86304C1.81689 6.03307 1.95439 6.17335 2.12106 6.17335H15.7586C15.9252 6.17335 16.0627 6.03732 16.0627 5.86304C16.0627 5.68876 15.9252 5.55273 15.7586 5.55273Z" fill="#222222"/>
<path d="M15.7586 3.39062H2.12106C1.95439 3.39062 1.81689 3.5309 1.81689 3.70093C1.81689 3.87096 1.95439 4.01124 2.12106 4.01124H15.7586C15.9252 4.01124 16.0627 3.87521 16.0627 3.70093C16.0627 3.52665 15.9252 3.39062 15.7586 3.39062Z" fill="#222222"/>
</g>
<defs>
<clipPath id="clip0_2140_42533">
<rect width="20" height="19.1667" fill="white" transform="translate(0 0.916016)"/>
</clipPath>
</defs>
</svg>
