<svg width="20" height="21" viewBox="0 0 20 21" fill="none" xmlns="http://www.w3.org/2000/svg">
<g clip-path="url(#clip0_2122_49165)">
<g clip-path="url(#clip1_2122_49165)">
<path d="M18.7875 0.917969H1.2125C0.545833 0.917969 0 1.47482 0 2.15494V11.7361C0 12.4163 0.545833 12.9731 1.2125 12.9731H18.7875C19.4583 12.9731 20 12.4205 20 11.7361V2.15494C20 1.47482 19.4583 0.917969 18.7875 0.917969ZM2.51667 12.3568L3.00833 10.5034H16.9917L17.4833 12.3568H2.51667ZM19.3917 11.7404C19.3917 12.0805 19.1208 12.361 18.7875 12.361H18.1125L17.5167 10.1166C17.4792 9.98058 17.3625 9.88707 17.225 9.88707H2.775C2.6375 9.88707 2.51667 9.98058 2.48333 10.1166L1.8875 12.361H1.2125C0.879167 12.361 0.608333 12.0847 0.608333 11.7404V2.15494C0.608333 1.81488 0.879167 1.53433 1.2125 1.53433H18.7875C19.1208 1.53433 19.3917 1.81063 19.3917 2.15494V11.7361V11.7404Z" fill="#080122"/>
<path d="M6.88345 15.9698C7.00011 15.8465 6.99595 15.651 6.87511 15.532C6.75428 15.413 6.56261 15.4172 6.44595 15.5405C5.81261 16.2121 5.81261 17.3045 6.44595 17.9804C6.85845 18.4182 6.85845 19.1239 6.44595 19.5617C6.32928 19.685 6.33345 19.8805 6.45428 19.9995C6.51261 20.059 6.58761 20.0845 6.66261 20.0845C6.73761 20.0845 6.82095 20.0548 6.87928 19.991C7.51261 19.3194 7.51261 18.227 6.87928 17.5511C6.46678 17.1133 6.46678 16.4076 6.87928 15.9698H6.88345Z" fill="#080122"/>
<path d="M10.2167 15.9698C10.3334 15.8465 10.3292 15.651 10.2084 15.532C10.0875 15.413 9.89587 15.4172 9.7792 15.5405C9.14587 16.2121 9.14587 17.3045 9.7792 17.9804C10.1917 18.4182 10.1917 19.1239 9.7792 19.5617C9.66253 19.685 9.6667 19.8805 9.78753 19.9995C9.84587 20.059 9.92087 20.0845 9.99587 20.0845C10.075 20.0845 10.1542 20.0548 10.2125 19.991C10.8459 19.3194 10.8459 18.227 10.2125 17.5511C9.80003 17.1133 9.80003 16.4076 10.2125 15.9698H10.2167Z" fill="#080122"/>
<path d="M3.54995 15.9698C3.66662 15.8465 3.66245 15.651 3.54162 15.532C3.42078 15.413 3.22912 15.4172 3.11245 15.5405C2.47912 16.2121 2.47912 17.3045 3.11245 17.9804C3.52495 18.4182 3.52495 19.1239 3.11245 19.5617C2.99578 19.685 2.99995 19.8805 3.12078 19.9995C3.17912 20.059 3.25412 20.0845 3.32912 20.0845C3.40828 20.0845 3.48745 20.0548 3.54578 19.991C4.17912 19.3194 4.17912 18.227 3.54578 17.5511C3.13328 17.1133 3.13328 16.4076 3.54578 15.9698H3.54995Z" fill="#080122"/>
<path d="M13.55 15.9698C13.6666 15.8465 13.6625 15.651 13.5416 15.532C13.4208 15.413 13.2291 15.4172 13.1125 15.5405C12.4791 16.2121 12.4791 17.3045 13.1125 17.9804C13.525 18.4182 13.525 19.1239 13.1125 19.5617C12.9958 19.685 13 19.8805 13.1208 19.9995C13.1791 20.059 13.2541 20.0845 13.3291 20.0845C13.4041 20.0845 13.4875 20.0548 13.5458 19.991C14.1791 19.3194 14.1791 18.227 13.5458 17.5511C13.1333 17.1133 13.1333 16.4076 13.5458 15.9698H13.55Z" fill="#080122"/>
<path d="M16.8834 15.9698C17.0001 15.8465 16.9959 15.651 16.8751 15.532C16.7543 15.413 16.5626 15.4172 16.4459 15.5405C15.8126 16.2121 15.8126 17.3045 16.4459 17.9804C16.8584 18.4182 16.8584 19.1239 16.4459 19.5617C16.3293 19.685 16.3334 19.8805 16.4543 19.9995C16.5126 20.059 16.5876 20.0845 16.6626 20.0845C16.7418 20.0845 16.8209 20.0548 16.8793 19.991C17.5126 19.3194 17.5126 18.227 16.8793 17.5511C16.4668 17.1133 16.4668 16.4076 16.8793 15.9698H16.8834Z" fill="#080122"/>
<path d="M17.8793 7.71875H17.2751C17.1084 7.71875 16.9709 7.85902 16.9709 8.02906C16.9709 8.19909 17.1084 8.33936 17.2751 8.33936H17.8793C18.0459 8.33936 18.1834 8.19909 18.1834 8.02906C18.1834 7.85902 18.0459 7.71875 17.8793 7.71875Z" fill="#080122"/>
<path d="M17.8793 5.55469H17.2751C17.1084 5.55469 16.9709 5.69496 16.9709 5.86499C16.9709 6.03502 17.1084 6.1753 17.2751 6.1753H17.8793C18.0459 6.1753 18.1834 6.03927 18.1834 5.86499C18.1834 5.69071 18.0459 5.55469 17.8793 5.55469Z" fill="#080122"/>
<path d="M17.8793 3.39062H17.2751C17.1084 3.39062 16.9709 3.5309 16.9709 3.70093C16.9709 3.87096 17.1084 4.01124 17.2751 4.01124H17.8793C18.0459 4.01124 18.1834 3.87521 18.1834 3.70093C18.1834 3.52665 18.0459 3.39062 17.8793 3.39062Z" fill="#080122"/>
<path d="M15.7583 7.71875H2.12082C1.95415 7.71875 1.81665 7.85902 1.81665 8.02906C1.81665 8.19909 1.95415 8.33936 2.12082 8.33936H15.7583C15.925 8.33936 16.0625 8.19909 16.0625 8.02906C16.0625 7.85902 15.925 7.71875 15.7583 7.71875Z" fill="#080122"/>
<path d="M15.7583 5.55469H2.12082C1.95415 5.55469 1.81665 5.69496 1.81665 5.86499C1.81665 6.03502 1.95415 6.1753 2.12082 6.1753H15.7583C15.925 6.1753 16.0625 6.03927 16.0625 5.86499C16.0625 5.69071 15.925 5.55469 15.7583 5.55469Z" fill="#080122"/>
<path d="M15.7583 3.39062H2.12082C1.95415 3.39062 1.81665 3.5309 1.81665 3.70093C1.81665 3.87096 1.95415 4.01124 2.12082 4.01124H15.7583C15.925 4.01124 16.0625 3.87521 16.0625 3.70093C16.0625 3.52665 15.925 3.39062 15.7583 3.39062Z" fill="#080122"/>
</g>
</g>
<defs>
<clipPath id="clip0_2122_49165">
<rect width="20" height="20" fill="white" transform="translate(0 0.5)"/>
</clipPath>
<clipPath id="clip1_2122_49165">
<rect width="20" height="19.1667" fill="white" transform="translate(0 0.917969)"/>
</clipPath>
</defs>
</svg>
