<svg width="20" height="21" viewBox="0 0 20 21" fill="none" xmlns="http://www.w3.org/2000/svg">
<path fill-rule="evenodd" clip-rule="evenodd" d="M9.94563 12.1071C10.9443 12.1071 11.7539 11.3076 11.7539 10.3214C11.7539 9.33517 10.9443 8.53568 9.94563 8.53568C8.94692 8.53568 8.13731 9.33517 8.13731 10.3214C8.13731 11.3076 8.94692 12.1071 9.94563 12.1071ZM9.94563 13C11.4437 13 12.6581 11.8007 12.6581 10.3214C12.6581 8.84206 11.4437 7.64282 9.94563 7.64282C8.44757 7.64282 7.23315 8.84206 7.23315 10.3214C7.23315 11.8007 8.44757 13 9.94563 13Z" fill="#080122"/>
<path fill-rule="evenodd" clip-rule="evenodd" d="M18.0833 9.42847L18.9875 10.3213L18.0833 11.2142V10.7678L13.5625 10.7678V9.8749L18.0833 9.8749V9.42847Z" fill="#080122"/>
<path fill-rule="evenodd" clip-rule="evenodd" d="M9.0415 2.28571L9.94567 1.39286L10.8498 2.28571L10.3977 2.28571L10.3977 6.75L9.49359 6.75L9.49359 2.28571L9.0415 2.28571Z" fill="#080122"/>
<path fill-rule="evenodd" clip-rule="evenodd" d="M1.80831 11.2144L0.904147 10.3215L1.80831 9.42864L1.80831 9.87507L6.3291 9.87506L6.3291 10.7679L1.80831 10.7679L1.80831 11.2144Z" fill="#080122"/>
<path fill-rule="evenodd" clip-rule="evenodd" d="M10.8499 18.3571L9.94569 19.25L9.04154 18.3571L9.49361 18.3571L9.49361 13.8928L10.3978 13.8928L10.3978 18.3571L10.8499 18.3571Z" fill="#080122"/>
</svg>
