<svg width="20" height="21" viewBox="0 0 20 21" fill="none" xmlns="http://www.w3.org/2000/svg">
    <path fill-rule="evenodd" clip-rule="evenodd" d="M7.49997 2.58333C5.6807 2.58333 4.21663 4.05451 4.21663 5.86667C4.21663 7.63466 5.60165 9.06996 7.34881 9.14103C7.44585 9.1337 7.54914 9.13341 7.64404 9.14098C9.39001 9.06929 10.7754 7.63466 10.7833 5.86588C10.7829 4.05469 9.31125 2.58333 7.49997 2.58333ZM3.3833 5.86667C3.3833 3.59549 5.21924 1.75 7.49997 1.75C9.77175 1.75 11.6166 3.59488 11.6166 5.86667L11.6166 5.8684C11.6074 8.09084 9.85605 9.90052 7.6473 9.97476C7.62879 9.97539 7.61027 9.97477 7.59184 9.97293C7.53727 9.96748 7.46391 9.96712 7.39602 9.97329C7.37883 9.97485 7.36156 9.97535 7.3443 9.97476C5.13585 9.90053 3.3833 8.09076 3.3833 5.86667Z" fill="#093B58"/>
    <path fill-rule="evenodd" clip-rule="evenodd" d="M13.2583 3.83329C13.2583 3.60317 13.4448 3.41663 13.6749 3.41663C15.5225 3.41663 17.0083 4.91228 17.0083 6.74996C17.0083 8.55021 15.5799 10.0163 13.7989 10.083C13.7764 10.0838 13.7539 10.0829 13.7316 10.0801C13.701 10.0763 13.6591 10.0756 13.6126 10.0807C13.3839 10.1062 13.1779 9.94135 13.1525 9.71264C13.1271 9.48393 13.2919 9.27792 13.5206 9.25251C13.6113 9.24243 13.7054 9.24066 13.7964 9.24901C15.1187 9.18442 16.1749 8.09001 16.1749 6.74996C16.1749 5.37097 15.0607 4.24996 13.6749 4.24996C13.4448 4.24996 13.2583 4.06341 13.2583 3.83329Z" fill="#093B58"/>
    <path fill-rule="evenodd" clip-rule="evenodd" d="M7.64385 11.0729C9.21924 11.0729 10.8151 11.4688 12.0398 12.2868C13.1348 13.0155 13.7376 14.0186 13.7376 15.076C13.7376 16.1333 13.1349 17.1384 12.0402 17.8712L12.0401 17.8713C10.8114 18.6934 9.21348 19.0916 7.6376 19.0916C6.06191 19.0916 4.46418 18.6935 3.23551 17.8716C2.14048 17.1429 1.5376 16.1397 1.5376 15.0823C1.5376 14.0249 2.14034 13.0198 3.23498 12.287L3.23651 12.286L3.23651 12.286C4.46897 11.4688 6.06833 11.0729 7.64385 11.0729ZM3.69779 12.9801C2.77629 13.5972 2.37093 14.3669 2.37093 15.0823C2.37093 15.7976 2.77621 16.5651 3.69756 17.1781L3.69847 17.1787C4.76141 17.8899 6.18848 18.2583 7.6376 18.2583C9.08672 18.2583 10.5138 17.8899 11.5767 17.1787C12.4987 16.5614 12.9043 15.7916 12.9043 15.076C12.9043 14.3607 12.499 13.5932 11.5776 12.9802L11.577 12.9798C10.5184 12.2728 9.09346 11.9062 7.64385 11.9062C6.19472 11.9062 4.76524 12.2726 3.69779 12.9801Z" fill="#093B58"/>
    <path fill-rule="evenodd" clip-rule="evenodd" d="M14.902 12.075C14.9526 11.8505 15.1756 11.7096 15.4 11.7602C16.0358 11.9034 16.6524 12.1575 17.1682 12.5511C17.9077 13.1063 18.3084 13.8688 18.3084 14.6625C18.3084 15.4559 17.9078 16.2184 17.1687 16.7736C16.6456 17.1747 16.0197 17.4389 15.3684 17.5745C15.1431 17.6215 14.9225 17.4769 14.8755 17.2516C14.8286 17.0263 14.9732 16.8057 15.1985 16.7587C15.7464 16.6446 16.2531 16.4259 16.663 16.1112L16.6668 16.1083L16.6668 16.1083C17.2264 15.6886 17.4751 15.16 17.4751 14.6625C17.4751 14.1649 17.2264 13.6363 16.6668 13.2166L16.6639 13.2145L16.6639 13.2145C16.2634 12.9086 15.7638 12.6964 15.2169 12.5731C14.9924 12.5225 14.8514 12.2995 14.902 12.075Z" fill="#093B58"/>
</svg>
