<svg width="20" height="12" viewBox="0 0 20 12" fill="none" xmlns="http://www.w3.org/2000/svg">
<path fill-rule="evenodd" clip-rule="evenodd" d="M0.718082 0.969364C0.787751 0.899519 0.870514 0.844104 0.961632 0.806295C1.05275 0.768485 1.15043 0.749023 1.24908 0.749023C1.34773 0.749023 1.44542 0.768485 1.53653 0.806295C1.62765 0.844104 1.71041 0.899519 1.78008 0.969364L10.2491 9.43987L18.7181 0.969364C18.7878 0.899632 18.8706 0.844317 18.9617 0.806579C19.0528 0.76884 19.1505 0.749416 19.2491 0.749416C19.3477 0.749416 19.4453 0.76884 19.5365 0.806579C19.6276 0.844317 19.7104 0.899632 19.7801 0.969364C19.8498 1.0391 19.9051 1.12188 19.9429 1.21299C19.9806 1.3041 20 1.40175 20 1.50036C20 1.59898 19.9806 1.69663 19.9429 1.78774C19.9051 1.87885 19.8498 1.96163 19.7801 2.03136L10.7801 11.0314C10.7104 11.1012 10.6276 11.1566 10.5365 11.1944C10.4454 11.2322 10.3477 11.2517 10.2491 11.2517C10.1504 11.2517 10.0527 11.2322 9.96163 11.1944C9.87051 11.1566 9.78775 11.1012 9.71808 11.0314L0.718082 2.03136C0.648238 1.9617 0.592823 1.87893 0.555014 1.78781C0.517204 1.6967 0.497742 1.59901 0.497742 1.50036C0.497742 1.40171 0.517204 1.30403 0.555014 1.21291C0.592823 1.1218 0.648238 1.03903 0.718082 0.969364Z" fill="#080122"/>
</svg>
