<svg width="24" height="24" viewBox="0 0 24 24" fill="none" xmlns="http://www.w3.org/2000/svg">
<path fill-rule="evenodd" clip-rule="evenodd" d="M7.97966 3.54L7.76592 4.81272C6.82857 4.86361 5.89304 4.93527 4.95967 5.03001L2.91967 5.23001C2.50967 5.27001 2.20967 5.63001 2.24967 6.05001C2.28967 6.47001 2.65967 6.77001 3.07967 6.73001L5.11967 6.53001C10.3497 6.00001 15.6297 6.20001 20.9197 6.73001H20.9997C21.3797 6.73001 21.7097 6.44001 21.7397 6.05001C21.7797 5.64001 21.4797 5.27001 21.0697 5.23001C19.4584 5.07186 17.848 4.94221 16.2401 4.85247L16.0197 3.55L16.0187 3.54413C15.8687 2.62414 15.6447 1.25 13.3097 1.25H10.6897C8.36132 1.25 8.13997 2.5781 7.98 3.53794L7.97966 3.54ZM14.5497 3.8L14.7154 4.77967C12.9058 4.70829 11.1 4.69217 9.30023 4.74763L9.46966 3.79L9.47118 3.781C9.61981 2.89906 9.64324 2.76 10.6997 2.76H13.3197C14.3797 2.76 14.4097 2.93 14.5497 3.8Z" fill="#220101" fill-opacity="0.4"/>
<path d="M8.78967 22.75H15.2097C18.6997 22.75 18.8397 20.82 18.9497 19.26L19.5997 9.19C19.6297 8.77 19.3097 8.42 18.8997 8.39C18.4897 8.37 18.1297 8.68 18.0997 9.09L17.4497 19.16C17.3497 20.68 17.3097 21.25 15.2097 21.25H8.78967C6.70092 21.25 6.65972 20.6807 6.54987 19.1627L6.54967 19.16L5.89967 9.09C5.86967 8.68 5.51967 8.37 5.09967 8.39C4.68967 8.42 4.36967 8.78 4.39967 9.19L5.04967 19.26C5.15967 20.82 5.29967 22.75 8.78967 22.75Z" fill="#220101" fill-opacity="0.4"/>
<path d="M13.6597 17.25H10.3297C9.91967 17.25 9.57967 16.91 9.57967 16.5C9.57967 16.09 9.91967 15.75 10.3297 15.75H13.6597C14.0697 15.75 14.4097 16.09 14.4097 16.5C14.4097 16.91 14.0697 17.25 13.6597 17.25Z" fill="#220101" fill-opacity="0.4"/>
<path d="M9.49966 13.25H14.4997C14.9097 13.25 15.2497 12.91 15.2497 12.5C15.2497 12.09 14.9097 11.75 14.4997 11.75H9.49966C9.08966 11.75 8.74966 12.09 8.74966 12.5C8.74966 12.91 9.08966 13.25 9.49966 13.25Z" fill="#220101" fill-opacity="0.4"/>
</svg>
