<svg width="20" height="21" viewBox="0 0 20 21" fill="none" xmlns="http://www.w3.org/2000/svg">
    <path fill-rule="evenodd" clip-rule="evenodd" d="M9.94588 12.1071C10.9446 12.1071 11.7542 11.3076 11.7542 10.3214C11.7542 9.33517 10.9446 8.53568 9.94588 8.53568C8.94717 8.53568 8.13756 9.33517 8.13756 10.3214C8.13756 11.3076 8.94717 12.1071 9.94588 12.1071ZM9.94588 13C11.4439 13 12.6584 11.8007 12.6584 10.3214C12.6584 8.84206 11.4439 7.64282 9.94588 7.64282C8.44782 7.64282 7.2334 8.84206 7.2334 10.3214C7.2334 11.8007 8.44782 13 9.94588 13Z" fill="#173B5D"/>
    <path fill-rule="evenodd" clip-rule="evenodd" d="M18.0833 9.42859L18.9875 10.3215L18.0833 11.2143V10.7679L13.5625 10.7679V9.87502L18.0833 9.87502V9.42859Z" fill="#173B5D"/>
    <path fill-rule="evenodd" clip-rule="evenodd" d="M9.0415 2.28571L9.94567 1.39286L10.8498 2.28571L10.3977 2.28571L10.3977 6.75L9.49359 6.75L9.49359 2.28571L9.0415 2.28571Z" fill="#173B5D"/>
    <path fill-rule="evenodd" clip-rule="evenodd" d="M1.80831 11.2142L0.904147 10.3214L1.80831 9.42852L1.80831 9.87495L6.3291 9.87494L6.3291 10.7678L1.80831 10.7678L1.80831 11.2142Z" fill="#173B5D"/>
    <path fill-rule="evenodd" clip-rule="evenodd" d="M10.8501 18.3571L9.94593 19.25L9.04178 18.3571L9.49386 18.3571L9.49385 13.8928L10.398 13.8928L10.398 18.3571L10.8501 18.3571Z" fill="#173B5D"/>
</svg>
