<svg width="20" height="21" viewBox="0 0 20 21" fill="none" xmlns="http://www.w3.org/2000/svg">
<path d="M19.6958 2.16699H0.304167C0.1375 2.16699 0 2.3097 0 2.48268V16.3211C0 16.4941 0.1375 16.6368 0.304167 16.6368H3.33333V18.2109H1.81667C1.65 18.2109 1.5125 18.3536 1.5125 18.5266C1.5125 18.6996 1.65 18.8423 1.81667 18.8423H18.1792C18.3458 18.8423 18.4833 18.6996 18.4833 18.5266C18.4833 18.3536 18.3458 18.2109 18.1792 18.2109H16.6625V16.6368H19.6917C19.8583 16.6368 19.9958 16.4941 19.9958 16.3211V2.48268C19.9958 2.3097 19.8583 2.16699 19.6917 2.16699H19.6958ZM16.0625 18.2066H3.94167V16.6325H16.0625V18.2066ZM16.3625 16.0054H0.608333V14.747H8.4875C8.65417 14.747 8.79167 14.6043 8.79167 14.4313C8.79167 14.2583 8.65417 14.1156 8.4875 14.1156H0.608333V2.79405H19.3958V14.1156H11.5167C11.35 14.1156 11.2125 14.2583 11.2125 14.4313C11.2125 14.6043 11.35 14.747 11.5167 14.747H19.3958V16.0054H16.3667H16.3625Z" fill="#080122"/>
<path d="M9.99997 14.1191C9.8333 14.1191 9.6958 14.2619 9.6958 14.4348C9.6958 14.6078 9.8333 14.7505 9.99997 14.7505C10.1666 14.7505 10.3041 14.6078 10.3041 14.4348C10.3041 14.2619 10.1666 14.1191 9.99997 14.1191Z" fill="#080122"/>
<path d="M16.2875 4.44531C16.1708 4.32422 15.9792 4.32422 15.8583 4.44531L8.5875 11.9959C8.47083 12.117 8.47083 12.3159 8.5875 12.4413C8.64583 12.5019 8.725 12.5321 8.8 12.5321C8.875 12.5321 8.95417 12.5019 9.0125 12.4413L16.2875 4.89073C16.4042 4.76965 16.4042 4.57072 16.2875 4.44531Z" fill="#080122"/>
<path d="M10.8333 5.7041C10.7167 5.58301 10.525 5.58301 10.4042 5.7041L4.34165 11.9963C4.22498 12.1173 4.22498 12.3163 4.34165 12.4417C4.39998 12.5022 4.47915 12.5325 4.55415 12.5325C4.62915 12.5325 4.70832 12.5022 4.76665 12.4417L10.8292 6.14952C10.9458 6.02843 10.9458 5.82951 10.8292 5.7041H10.8333Z" fill="#080122"/>
</svg>
