<svg width="20" height="18" viewBox="0 0 20 18" fill="none" xmlns="http://www.w3.org/2000/svg">
    <path d="M19.6154 10.2263H14.2308H10.9231L15.1218 6.02752C15.2757 5.87368 15.2757 5.64292 15.1218 5.48904C14.968 5.3352 14.7372 5.3352 14.5833 5.48904L9.84616 10.2263H0.3846C0.15384 10.2263 0 10.3801 0 10.6109V12.9186C0 13.1493 0.15384 13.3032 0.3846 13.3032H6.7692L2.90573 17.1667C2.75189 17.3205 2.75189 17.5513 2.90573 17.7052C2.98265 17.7821 3.05957 17.8205 3.17495 17.8205C3.29033 17.8205 3.36725 17.7821 3.44417 17.7052L7.84612 13.3032H14.2307H19.6153C19.8461 13.3032 19.9999 13.1494 19.9999 12.9186V10.6109C20 10.3801 19.8461 10.2263 19.6154 10.2263ZM0.76924 12.534V10.9955H9.07692L7.53844 12.534H0.76924ZM10.1538 10.9955H13.8462V12.534H8.61536L10.1538 10.9955ZM19.2308 12.534H14.6154V10.9955H19.2307L19.2308 12.534Z" fill="#220101"/>
    <path d="M0.769406 9.61093C1.00017 9.61093 1.15401 9.45709 1.15401 9.22633C1.15401 7.41863 2.00017 5.99557 3.07709 5.99557H5.00017C5.19247 5.99557 5.34631 5.88019 5.38477 5.68789C5.42323 5.53405 5.34631 5.38021 5.23093 5.30329C4.84633 4.99561 4.61553 4.57251 4.61553 4.07253C4.61553 3.22637 5.30785 2.53409 6.15397 2.53409C6.38473 2.53409 6.53857 2.38025 6.53857 2.14949C6.53857 1.91873 6.38473 1.76489 6.15397 1.76489C4.88475 1.76489 3.84629 2.80335 3.84629 4.07257C3.84629 4.49563 3.96167 4.88027 4.15397 5.22641H3.07709C1.53865 5.22641 0.384766 6.95719 0.384766 9.22641C0.384766 9.45709 0.538645 9.61093 0.769406 9.61093Z" fill="#220101"/>
    <path d="M7.15361 1.49552C7.73055 1.76474 8.07669 2.30322 8.07669 2.91858C8.07669 3.76474 7.38437 4.45706 6.53825 4.45706C6.30749 4.45706 6.15365 4.6109 6.15365 4.84166C6.15365 5.03396 6.26903 5.1878 6.42287 5.22626C6.69209 5.30318 6.92285 5.64932 6.92285 5.9955C6.92285 6.41856 6.57671 6.76474 6.15361 6.76474H3.84593C2.73055 6.76474 1.92285 7.8032 1.92285 9.22626C1.92285 9.45702 2.07669 9.61086 2.30745 9.61086C2.53821 9.61086 2.69205 9.45702 2.69205 9.22626C2.69205 8.26472 3.19207 7.53394 3.84589 7.53394H6.15357C6.99973 7.53394 7.69205 6.84162 7.69205 5.99546C7.69205 5.68778 7.57667 5.3416 7.38437 5.07238C8.23053 4.72624 8.84589 3.88008 8.84589 2.91854C8.84589 1.99546 8.30745 1.18776 7.46129 0.803158C7.26899 0.726238 7.03823 0.803158 6.96131 0.995458C6.88439 1.18776 6.96131 1.4186 7.15361 1.49552Z" fill="#220101"/>
</svg>
