<svg width="20" height="21" viewBox="0 0 20 21" fill="none" xmlns="http://www.w3.org/2000/svg">
<g clip-path="url(#clip0_906_5562)">
<path d="M18.7875 13.8658H18.6625L15.9583 6.13929C16.6042 6.11389 17.1208 5.57621 17.1208 4.91152V1.73201C17.1208 1.05461 16.5792 0.5 15.9083 0.5H14.8458C14.6792 0.5 14.5417 0.639712 14.5417 0.80906C14.5417 1.3171 14.1333 1.73201 13.6333 1.73201H6.3625C5.8625 1.73201 5.45417 1.3171 5.45417 0.80906C5.45417 0.639712 5.31667 0.5 5.15 0.5H4.0875C3.42083 0.5 2.875 1.05038 2.875 1.73201V4.91152C2.875 5.57197 3.39167 6.10965 4.0375 6.13929L1.3375 13.8658H1.2125C0.545833 13.8658 0 14.4204 0 15.0978V17.8709C0 18.5483 0.545833 19.1029 1.2125 19.1029V20.1952C1.2125 20.3645 1.35 20.5042 1.51667 20.5042C1.68333 20.5042 1.82083 20.3645 1.82083 20.1952V19.1029H18.1833V20.1952C18.1833 20.3645 18.3208 20.5042 18.4875 20.5042C18.6542 20.5042 18.7917 20.3645 18.7917 20.1952V19.1029C19.4583 19.1029 20.0042 18.5525 20.0042 17.8709V15.0978C20.0042 14.4204 19.4583 13.8658 18.7917 13.8658H18.7875ZM3.48333 4.91152V1.73201C3.48333 1.39331 3.75417 1.11389 4.0875 1.11389H4.875C5.01667 1.81668 5.62917 2.34589 6.35833 2.34589H13.6292C14.3625 2.34589 14.975 1.81668 15.1125 1.11389H15.9C16.2333 1.11389 16.5042 1.38908 16.5042 1.73201V4.91152C16.5042 5.25021 16.2333 5.5254 15.9 5.5254H15.7333L15.5625 5.03429C15.5208 4.91152 15.4042 4.83107 15.275 4.83107H14.2583C13.9458 4.00127 13.0667 3.40008 12.0333 3.40008C11.1542 3.40008 10.3917 3.83192 9.9875 4.46698C9.58333 3.83192 8.82083 3.40008 7.94167 3.40008C6.90833 3.40008 6.02917 4.00127 5.71667 4.83107H4.7C4.57083 4.83107 4.45833 4.91152 4.4125 5.03429L4.24167 5.5254H4.075C3.74167 5.5254 3.47083 5.25021 3.47083 4.91152H3.48333ZM13.7875 5.49577C13.7875 5.76672 13.7 5.85986 13.6708 5.8895C13.4583 6.10118 12.8875 6.10119 12.2833 6.09695H12.0458H11.8083C11.2042 6.10119 10.6333 6.10118 10.4208 5.8895C10.3917 5.85986 10.3042 5.77096 10.3042 5.49577C10.3042 4.6829 11.0875 4.0182 12.0458 4.0182C13.0042 4.0182 13.7875 4.6829 13.7875 5.49577ZM9.69583 5.49577C9.69583 5.76672 9.60833 5.85986 9.57917 5.8895C9.36667 6.10118 8.8 6.10119 8.19167 6.09695H7.95417H7.71667C7.1125 6.10119 6.54167 6.10118 6.32917 5.8895C6.3 5.85986 6.2125 5.77096 6.2125 5.49577C6.2125 4.6829 6.99583 4.0182 7.95417 4.0182C8.9125 4.0182 9.69583 4.6829 9.69583 5.49577ZM4.92917 5.4492H5.60833C5.60833 5.4492 5.60833 5.47883 5.60833 5.49577C5.60833 5.84716 5.70833 6.12659 5.90417 6.32557C6.29167 6.71931 6.95417 6.71507 7.72083 6.71084H7.95417H8.1875C8.2625 6.71084 8.3375 6.71084 8.40833 6.71084C9.075 6.71084 9.64583 6.67697 9.99583 6.32981C10.3875 6.71507 11.0458 6.71507 11.8083 6.71084H12.0417H12.275C12.35 6.71084 12.425 6.71084 12.4958 6.71084C13.1667 6.71084 13.7417 6.6812 14.0917 6.32557C14.2875 6.12659 14.3875 5.84716 14.3875 5.49577C14.3875 5.47883 14.3875 5.46613 14.3875 5.4492H15.0667L16.0625 8.29424H3.93333L4.92917 5.4492ZM3.71667 8.90813H16.2833L18.0208 13.8658H17.2708C17.1042 13.8658 16.9667 14.0055 16.9667 14.1749V14.4839C16.9667 14.992 16.5583 15.4069 16.0583 15.4069H3.9375C3.4375 15.4069 3.02917 14.992 3.02917 14.4839V14.1749C3.02917 14.0055 2.89167 13.8658 2.725 13.8658H1.97917L3.71667 8.90813ZM19.3958 17.8666C19.3958 18.2053 19.125 18.4848 18.7917 18.4848H1.2125C0.879167 18.4848 0.608333 18.2096 0.608333 17.8666V15.0936C0.608333 14.7549 0.879167 14.4797 1.2125 14.4797H2.425C2.425 15.3264 3.10417 16.0207 3.94167 16.0207H16.0625C16.9 16.0207 17.5792 15.3307 17.5792 14.4797H18.7917C19.125 14.4797 19.3958 14.7549 19.3958 15.0936V17.8666Z" fill="#093B58"/>
</g>
<defs>
<clipPath id="clip0_906_5562">
<rect width="20" height="20" fill="white" transform="translate(0 0.5)"/>
</clipPath>
</defs>
</svg>
