<svg width="93" height="48" viewBox="0 0 93 48" fill="none" xmlns="http://www.w3.org/2000/svg">
<path d="M0 5.94141V24.2271H3.77708V9.39327L8.12331 24.2271H12.2367L16.6088 9.32596V24.2271H20.5411V5.94141H14.3063L10.2576 19.7333L6.2089 5.94141H0Z" fill="white"/>
<path d="M23.1166 24.2271V5.94141H27.1007V24.2271H23.1166Z" fill="white"/>
<path d="M29.6853 5.94141V24.2271H33.5658V10.5481L40.5767 24.2271H45.7249V5.94141H41.8444V19.6205L34.8335 5.94141H29.6853Z" fill="white"/>
<path d="M48.3049 5.94141V24.2271H62.1714V21.2303H52.2889V16.3541H61.266V13.4081H52.2889V8.93823H61.861V5.94141H48.3049Z" fill="white"/>
<path d="M69.2111 1.94283H68.0835V3.65712H69.2111V1.94283Z" fill="white"/>
<path d="M69.2111 4.79999H68.0835V6.51428H69.2111V4.79999Z" fill="white"/>
<path d="M69.2111 7.65709H68.0835V9.37138H69.2111V7.65709Z" fill="white"/>
<path d="M69.2111 10.5143H68.0835V12.2285H69.2111V10.5143Z" fill="white"/>
<path d="M69.2111 13.3714H68.0835V15.0857H69.2111V13.3714Z" fill="white"/>
<path d="M68.0835 16.2285H69.2111V17.9428H68.0835V16.2285Z" fill="white"/>
<path d="M71.4663 16.2285H70.3387V17.9428H71.4663V16.2285Z" fill="white"/>
<path d="M73.7215 16.2285H72.5939V17.9428H73.7215V16.2285Z" fill="white"/>
<path d="M75.9768 16.2285H74.8492V17.9428H75.9768V16.2285Z" fill="white"/>
<path d="M71.4663 13.3714H70.3387V15.0857H71.4663V13.3714Z" fill="white"/>
<path d="M73.7215 13.3714H72.5939V15.0857H73.7215V13.3714Z" fill="white"/>
<path d="M75.9768 13.3714H74.8492V15.0857H75.9768V13.3714Z" fill="white"/>
<path d="M71.4663 10.5143H70.3387V12.2285H71.4663V10.5143Z" fill="white"/>
<path d="M73.7215 10.5143H72.5939V12.2285H73.7215V10.5143Z" fill="white"/>
<path d="M75.9768 10.5143H74.8492V12.2285H75.9768V10.5143Z" fill="white"/>
<path d="M71.4663 7.65709H70.3387V9.37138H71.4663V7.65709Z" fill="white"/>
<path d="M73.7215 7.65709H72.5939V9.37138H73.7215V7.65709Z" fill="white"/>
<path d="M75.9768 7.65709H74.8492V9.37138H75.9768V7.65709Z" fill="white"/>
<path d="M71.4663 4.79999H70.3387V6.51428H71.4663V4.79999Z" fill="white"/>
<path d="M73.7215 4.79999H72.5939V6.51428H73.7215V4.79999Z" fill="white"/>
<path d="M75.9768 4.79999H74.8492V6.51428H75.9768V4.79999Z" fill="white"/>
<path d="M71.4663 1.94283H70.3387V3.65712H71.4663V1.94283Z" fill="white"/>
<path d="M73.7215 1.94283H72.5939V3.65712H73.7215V1.94283Z" fill="white"/>
<path d="M75.9768 1.94283H74.8492V3.65712H75.9768V1.94283Z" fill="white"/>
<path d="M79.3596 19.0857H80.4872V20.8H79.3596V19.0857Z" fill="white"/>
<path d="M79.3596 16.2285H80.4872V17.9428H79.3596V16.2285Z" fill="white"/>
<path d="M79.3596 13.3714H80.4872V15.0857H79.3596V13.3714Z" fill="white"/>
<path d="M79.3596 10.5143H80.4872V12.2285H79.3596V10.5143Z" fill="white"/>
<path d="M79.3596 7.65709H80.4872V9.37138H79.3596V7.65709Z" fill="white"/>
<path d="M79.3596 4.79999H80.4872V6.51428H79.3596V4.79999Z" fill="white"/>
<path fill-rule="evenodd" clip-rule="evenodd" d="M79.3597 0V1.14289H78.232V2.2857H83.8701V3.42857H82.7425V23.0857H84.7439C85.3023 19.7011 86.0913 18.5995 86.7839 17.6325C86.891 17.4831 86.9957 17.3369 87.0969 17.186C85.8794 17.5506 85.1884 17.976 83.8083 19.1023C83.7739 19.1297 83.7331 19.1483 83.6895 19.1563C83.646 19.1644 83.6011 19.1618 83.559 19.1486C83.5171 19.1334 83.4798 19.1082 83.4505 19.0754C83.4213 19.0425 83.4011 19.003 83.3917 18.9605C82.9394 16.9508 84.8415 16.313 86.4968 16.394C85.35 15.8524 84.6462 15.7131 83.775 15.5406C83.6549 15.5169 83.5316 15.4925 83.4036 15.4663C83.3585 15.4569 83.3169 15.436 83.2829 15.4057C83.2489 15.3755 83.2238 15.3371 83.2102 15.2943C83.1971 15.2518 83.1961 15.2066 83.2072 15.1635C83.2183 15.1204 83.2411 15.081 83.2732 15.0493C84.3277 13.9415 85.6283 13.9253 86.6332 14.838C85.8326 13.3486 85.091 12.8675 85.0498 12.8408L85.0481 12.8397C85.0025 12.8128 84.9667 12.7727 84.9459 12.725C84.925 12.6773 84.92 12.6244 84.9316 12.5736C84.9433 12.5229 84.9709 12.4769 85.0107 12.442C85.0505 12.4072 85.1004 12.3853 85.1535 12.3793C87.5427 12.0659 88.3807 13.8235 88.1661 15.6973C89.3464 14.3598 90.9829 14.4714 92.2822 16.0503C92.3168 16.0899 92.3376 16.1391 92.3417 16.1909C92.3458 16.2428 92.3329 16.2946 92.305 16.3391C92.2765 16.3836 92.2346 16.4185 92.1851 16.4391C92.1356 16.4597 92.0808 16.465 92.0283 16.4542C90.8959 16.242 89.7259 16.3042 88.6215 16.6354C90.5198 17.0435 91.401 18.4339 90.1913 20.3907C90.1643 20.4372 90.1226 20.4741 90.0725 20.496C90.0224 20.5179 89.9665 20.5236 89.9129 20.5123C89.8594 20.5009 89.8111 20.4732 89.7751 20.4331C89.7392 20.393 89.7175 20.3427 89.7132 20.2896C89.496 19.0712 88.8391 17.97 87.8601 17.1834C87.7688 17.4871 87.6486 17.8084 87.5139 18.1686C87.0458 19.4199 86.4021 21.1407 86.1837 24.2247C86.1837 24.2247 86.0878 24.2251 85.9424 24.2257V24.2285H84.9294C84.8839 24.2286 84.841 24.2286 84.8015 24.2285L65.8281 24.2285L65.8282 0H79.3597ZM77.1044 23.0857V1.14289H66.9558V23.0857H68.6473V19.6571C68.6473 19.3411 68.8999 19.0857 69.2111 19.0857H74.8492C75.161 19.0857 75.4129 19.3411 75.4129 19.6571V23.0857H77.1044ZM78.232 23.0857H81.6149V3.42857H78.232V23.0857ZM71.4663 23.0857H69.7748V20.2285H71.4663V23.0857ZM74.2853 23.0857H72.5939V20.2285H74.2853V23.0857Z" fill="white"/>
<path d="M82.8894 47.5189C80.8262 47.5189 79.1807 47.0089 77.9526 45.9889C76.741 44.9689 76.0287 43.5129 75.8158 41.621H77.7807C77.9608 42.9865 78.4766 44.0147 79.328 44.7057C80.1795 45.3966 81.3584 45.7421 82.8648 45.7421C84.142 45.7421 85.0998 45.5036 85.7384 45.0265C86.3934 44.5329 86.7209 43.8173 86.7209 42.8796C86.7209 42.0734 86.4998 41.4318 86.0577 40.9548C85.6156 40.4777 84.9279 40.0828 83.9946 39.7703L81.0227 38.7338C79.5163 38.2074 78.4029 37.574 77.6825 36.8337C76.962 36.0769 76.6018 35.1227 76.6018 33.9711C76.6018 33.017 76.8392 32.1944 77.3141 31.5034C77.7889 30.796 78.4602 30.2449 79.328 29.8501C80.1959 29.4552 81.2028 29.2578 82.349 29.2578C84.1174 29.2578 85.5337 29.7267 86.598 30.6644C87.6623 31.5857 88.2764 32.9018 88.4401 34.6127H86.4752C86.2624 33.3789 85.8203 32.4741 85.149 31.8983C84.494 31.3225 83.5443 31.0346 82.2999 31.0346C81.121 31.0346 80.204 31.2731 79.5491 31.7502C78.8941 32.2273 78.5667 32.9018 78.5667 33.7737C78.5667 34.514 78.7959 35.1063 79.2544 35.5505C79.7128 35.9947 80.4251 36.3813 81.3912 36.7103L84.5595 37.8208C85.9349 38.2979 86.9665 38.9477 87.6542 39.7703C88.3419 40.5764 88.6857 41.6046 88.6857 42.8549C88.6857 44.3355 88.1781 45.4871 87.1629 46.3097C86.1641 47.1158 84.7396 47.5189 82.8894 47.5189Z" fill="white"/>
<path d="M54.6383 47.2968V29.5293H57.7329L64.1187 46.6552H63.1854L69.5221 29.5293H72.6659V47.2968H70.6765V30.5904H70.9467L64.7819 47.2968H62.3749L56.2102 30.7384H56.4803V47.2968H54.6383Z" fill="white"/>
<path d="M42.8704 47.5435C41.6423 47.5435 40.5125 47.3214 39.481 46.8772C38.4658 46.4166 37.5816 45.775 36.8284 44.9524C36.0752 44.1134 35.4857 43.1346 35.06 42.0159C34.6507 40.8972 34.446 39.6715 34.446 38.339C34.446 36.5787 34.8062 35.0158 35.5267 33.6503C36.2471 32.2849 37.2377 31.2155 38.4985 30.4423C39.7757 29.6691 41.2248 29.2825 42.8458 29.2825C44.4996 29.2825 45.9568 29.6691 47.2176 30.4423C48.4948 31.2155 49.4936 32.2849 50.214 33.6503C50.9345 35.0158 51.2947 36.5869 51.2947 38.3637C51.2947 39.6962 51.0819 40.9218 50.6561 42.0405C50.2468 43.1592 49.6655 44.1299 48.9123 44.9524C48.1591 45.775 47.2667 46.4166 46.2352 46.8772C45.2036 47.3214 44.082 47.5435 42.8704 47.5435ZM42.8458 45.7174C44.1066 45.7174 45.2118 45.4048 46.1615 44.7797C47.1276 44.1381 47.8808 43.2579 48.4211 42.1392C48.9614 41.0206 49.2316 39.7456 49.2316 38.3143C49.2316 36.8995 48.9614 35.6492 48.4211 34.5634C47.8971 33.4776 47.1521 32.6303 46.1861 32.0216C45.2364 31.4129 44.123 31.1086 42.8458 31.1086C41.5686 31.1086 40.4552 31.4129 39.5055 32.0216C38.5558 32.6303 37.819 33.4776 37.2951 34.5634C36.7711 35.6327 36.5091 36.883 36.5091 38.3143C36.5091 39.762 36.7711 41.0452 37.2951 42.1639C37.8354 43.2662 38.5804 44.1381 39.5301 44.7797C40.4798 45.4048 41.585 45.7174 42.8458 45.7174Z" fill="white"/>
<path d="M23.4424 47.5435C22.2143 47.5435 21.0845 47.3214 20.053 46.8772C19.0378 46.4166 18.1536 45.775 17.4004 44.9524C16.6472 44.1134 16.0577 43.1346 15.632 42.0159C15.2227 40.8972 15.018 39.6715 15.018 38.339C15.018 36.5787 15.3782 35.0158 16.0987 33.6503C16.8191 32.2849 17.8097 31.2155 19.0705 30.4423C20.3477 29.6691 21.7968 29.2825 23.4178 29.2825C25.0716 29.2825 26.5288 29.6691 27.7896 30.4423C29.0668 31.2155 30.0656 32.2849 30.786 33.6503C31.5065 35.0158 31.8667 36.5869 31.8667 38.3637C31.8667 39.6962 31.6539 40.9218 31.2281 42.0405C30.8188 43.1592 30.2375 44.1299 29.4843 44.9524C28.7311 45.775 27.8387 46.4166 26.8072 46.8772C25.7756 47.3214 24.654 47.5435 23.4424 47.5435ZM23.4178 45.7174C24.6786 45.7174 25.7838 45.4048 26.7335 44.7797C27.6996 44.1381 28.4528 43.2579 28.9931 42.1392C29.5334 41.0206 29.8036 39.7456 29.8036 38.3143C29.8036 36.8995 29.5334 35.6492 28.9931 34.5634C28.4691 33.4776 27.7241 32.6303 26.7581 32.0216C25.8084 31.4129 24.695 31.1086 23.4178 31.1086C22.1406 31.1086 21.0272 31.4129 20.0775 32.0216C19.1278 32.6303 18.391 33.4776 17.867 34.5634C17.3431 35.6327 17.0811 36.883 17.0811 38.3143C17.0811 39.762 17.3431 41.0452 17.867 42.1639C18.4074 43.2662 19.1524 44.1381 20.1021 44.7797C21.0518 45.4048 22.157 45.7174 23.4178 45.7174Z" fill="white"/>
<path d="M0 47.2968V29.5293H6.53318C7.79397 29.5293 8.86646 29.7349 9.75065 30.1462C10.6348 30.5575 11.3062 31.1333 11.7646 31.8736C12.2395 32.5974 12.4769 33.4611 12.4769 34.4647C12.4769 35.4682 12.2395 36.3484 11.7646 37.1051C11.3062 37.8454 10.6348 38.4295 9.75065 38.8572C8.86646 39.2685 7.79397 39.4741 6.53318 39.4741H1.47365V37.6974H6.4595C7.76941 37.6974 8.76003 37.4095 9.43136 36.8337C10.1191 36.2579 10.4629 35.4682 10.4629 34.4647C10.4629 33.4776 10.1273 32.7044 9.45592 32.145C8.78459 31.5857 7.78578 31.306 6.4595 31.306H2.01399V47.2968H0ZM10.3647 47.2968L0.957872 38.487H3.70869L13.4102 47.2968H10.3647Z" fill="white"/>
</svg>
