<svg width="86" height="44" viewBox="0 0 86 44" fill="none" xmlns="http://www.w3.org/2000/svg">
<path d="M0.67627 5.44922V22.2111H4.13859V8.61343L8.12263 22.2111H11.8932L15.901 8.55173V22.2111H19.5056V5.44922H13.7904L10.0791 18.0918L6.36776 5.44922H0.67627Z" fill="#080122"/>
<path d="M21.8665 22.2111V5.44922H25.5185V22.2111H21.8665Z" fill="#080122"/>
<path d="M27.8878 5.44922V22.2111H31.445V9.672L37.8716 22.2111H42.5908V5.44922H39.0336V17.9883L32.607 5.44922H27.8878Z" fill="#080122"/>
<path d="M44.9558 5.44922V22.2111H57.6667V19.464H48.6078V14.9942H56.8367V12.2937H48.6078V8.19631H57.3822V5.44922H44.9558Z" fill="#080122"/>
<path d="M64.1201 1.78093H63.0864V3.35236H64.1201V1.78093Z" fill="#4618A9"/>
<path d="M64.1201 4.39999H63.0864V5.97143H64.1201V4.39999Z" fill="#4618A9"/>
<path d="M64.1201 7.019H63.0864V8.59043H64.1201V7.019Z" fill="#4618A9"/>
<path d="M64.1201 9.63807H63.0864V11.2095H64.1201V9.63807Z" fill="#4618A9"/>
<path d="M64.1201 12.2571H63.0864V13.8286H64.1201V12.2571Z" fill="#4618A9"/>
<path d="M63.0864 14.8761H64.1201V16.4476H63.0864V14.8761Z" fill="#4618A9"/>
<path d="M66.1874 14.8761H65.1537V16.4476H66.1874V14.8761Z" fill="#4618A9"/>
<path d="M68.2547 14.8761H67.221V16.4476H68.2547V14.8761Z" fill="#4618A9"/>
<path d="M70.322 14.8761H69.2883V16.4476H70.322V14.8761Z" fill="#4618A9"/>
<path d="M66.1874 12.2571H65.1537V13.8286H66.1874V12.2571Z" fill="#4618A9"/>
<path d="M68.2547 12.2571H67.221V13.8286H68.2547V12.2571Z" fill="#4618A9"/>
<path d="M70.322 12.2571H69.2883V13.8286H70.322V12.2571Z" fill="#4618A9"/>
<path d="M66.1874 9.63807H65.1537V11.2095H66.1874V9.63807Z" fill="#4618A9"/>
<path d="M68.2547 9.63807H67.221V11.2095H68.2547V9.63807Z" fill="#4618A9"/>
<path d="M70.322 9.63807H69.2883V11.2095H70.322V9.63807Z" fill="#4618A9"/>
<path d="M66.1874 7.019H65.1537V8.59043H66.1874V7.019Z" fill="#4618A9"/>
<path d="M68.2547 7.019H67.221V8.59043H68.2547V7.019Z" fill="#4618A9"/>
<path d="M70.322 7.019H69.2883V8.59043H70.322V7.019Z" fill="#4618A9"/>
<path d="M66.1874 4.39999H65.1537V5.97143H66.1874V4.39999Z" fill="#4618A9"/>
<path d="M68.2547 4.39999H67.221V5.97143H68.2547V4.39999Z" fill="#4618A9"/>
<path d="M70.322 4.39999H69.2883V5.97143H70.322V4.39999Z" fill="#4618A9"/>
<path d="M66.1874 1.78093H65.1537V3.35236H66.1874V1.78093Z" fill="#4618A9"/>
<path d="M68.2547 1.78093H67.221V3.35236H68.2547V1.78093Z" fill="#4618A9"/>
<path d="M70.322 1.78093H69.2883V3.35236H70.322V1.78093Z" fill="#4618A9"/>
<path d="M73.4229 17.4952H74.4566V19.0666H73.4229V17.4952Z" fill="#4618A9"/>
<path d="M73.4229 14.8761H74.4566V16.4476H73.4229V14.8761Z" fill="#4618A9"/>
<path d="M73.4229 12.2571H74.4566V13.8286H73.4229V12.2571Z" fill="#4618A9"/>
<path d="M73.4229 9.63807H74.4566V11.2095H73.4229V9.63807Z" fill="#4618A9"/>
<path d="M73.4229 7.019H74.4566V8.59043H73.4229V7.019Z" fill="#4618A9"/>
<path d="M73.4229 4.39999H74.4566V5.97143H73.4229V4.39999Z" fill="#4618A9"/>
<path fill-rule="evenodd" clip-rule="evenodd" d="M73.423 0V1.04765H72.3893V2.09522H77.5575V3.14285H76.5238V21.1619H78.3585C78.8703 18.0593 79.5937 17.0495 80.2285 16.1632C80.3266 16.0262 80.4226 15.8922 80.5154 15.7538C79.3994 16.088 78.766 16.478 77.5008 17.5105C77.4694 17.5355 77.4319 17.5526 77.392 17.56C77.3521 17.5674 77.3109 17.5649 77.2723 17.5529C77.2339 17.539 77.1997 17.5159 77.1729 17.4858C77.1461 17.4556 77.1276 17.4194 77.119 17.3804C76.7044 15.5383 78.448 14.9536 79.9654 15.0279C78.9141 14.5313 78.2689 14.4037 77.4703 14.2456C77.3602 14.2238 77.2472 14.2014 77.1299 14.1775C77.0886 14.1688 77.0504 14.1496 77.0192 14.1219C76.9881 14.0942 76.9651 14.059 76.9526 14.0197C76.9406 13.9808 76.9397 13.9394 76.9498 13.8999C76.96 13.8604 76.9809 13.8242 77.0104 13.7952C77.977 12.7797 79.1692 12.7649 80.0904 13.6015C79.3565 12.2362 78.6767 11.7952 78.6389 11.7707L78.6373 11.7697C78.5955 11.7451 78.5628 11.7083 78.5436 11.6646C78.5245 11.6208 78.5199 11.5723 78.5306 11.5258C78.5412 11.4793 78.5666 11.4371 78.6031 11.4052C78.6395 11.3732 78.6853 11.3532 78.734 11.3477C80.924 11.0604 81.6922 12.6716 81.4955 14.3892C82.5774 13.1631 84.0776 13.2654 85.2686 14.7128C85.3003 14.749 85.3194 14.7941 85.3231 14.8417C85.3269 14.8892 85.3151 14.9368 85.2895 14.9775C85.2634 15.0183 85.225 15.0503 85.1796 15.0691C85.1342 15.088 85.084 15.0929 85.0358 15.0831C83.9979 14.8885 82.9254 14.9455 81.913 15.2491C83.653 15.6232 84.4608 16.8977 83.352 18.6915C83.3272 18.7341 83.289 18.7679 83.2431 18.788C83.1971 18.8081 83.1459 18.8133 83.0968 18.8029C83.0477 18.7925 83.0034 18.7671 82.9705 18.7303C82.9375 18.6936 82.9176 18.6475 82.9137 18.5988C82.7146 17.4819 82.1124 16.4725 81.215 15.7515C81.1313 16.0299 81.0212 16.3244 80.8977 16.6546C80.4686 17.8016 79.8785 19.379 79.6783 22.2059C79.6783 22.2059 79.5904 22.2063 79.4571 22.2069V22.2095H78.5286C78.4869 22.2095 78.4475 22.2095 78.4113 22.2095L61.019 22.2095L61.0191 0H73.423ZM71.3556 21.1619V1.04765H62.0527V21.1619H63.6033V18.019C63.6033 17.7293 63.8348 17.4952 64.1201 17.4952H69.2883C69.5741 17.4952 69.8051 17.7293 69.8051 18.019V21.1619H71.3556ZM72.3893 21.1619H75.4902V3.14285H72.3893V21.1619ZM66.1874 21.1619H64.6368V18.5428H66.1874V21.1619ZM68.7715 21.1619H67.221V18.5428H68.7715V21.1619Z" fill="#4618A9"/>
<path d="M76.6582 43.5596C74.767 43.5596 73.2586 43.0921 72.1329 42.1571C71.0222 41.2221 70.3692 39.8875 70.1741 38.1533H71.9753C72.1404 39.4049 72.6132 40.3475 73.3936 40.9808C74.1741 41.6142 75.2548 41.9309 76.6357 41.9309C77.8064 41.9309 78.6845 41.7122 79.2698 41.2749C79.8702 40.8225 80.1704 40.1665 80.1704 39.3069C80.1704 38.568 79.9678 37.9798 79.5625 37.5425C79.1572 37.1052 78.5269 36.7432 77.6713 36.4567L74.9471 35.5066C73.5662 35.0241 72.5456 34.4435 71.8852 33.7649C71.2248 33.0712 70.8946 32.1965 70.8946 31.1409C70.8946 30.2662 71.1122 29.5122 71.5475 28.8788C71.9828 28.2303 72.5981 27.7251 73.3936 27.3632C74.1891 27.0013 75.1122 26.8203 76.1629 26.8203C77.7839 26.8203 79.0822 27.2501 80.0578 28.1097C81.0334 28.9542 81.5963 30.1606 81.7464 31.729H79.9452C79.7501 30.598 79.3449 29.7685 78.7295 29.2407C78.1291 28.7129 77.2586 28.449 76.1179 28.449C75.0372 28.449 74.1966 28.6677 73.5963 29.105C72.9959 29.5423 72.6957 30.1606 72.6957 30.9599C72.6957 31.6385 72.9058 32.1814 73.3261 32.5886C73.7464 32.9958 74.3993 33.3501 75.2848 33.6518L78.1891 34.6697C79.4499 35.107 80.3955 35.7027 81.0259 36.4567C81.6563 37.1957 81.9715 38.1382 81.9715 39.2843C81.9715 40.6415 81.5062 41.6972 80.5756 42.4512C79.6601 43.1901 78.3542 43.5596 76.6582 43.5596Z" fill="#080122"/>
<path d="M50.7613 43.356V27.0691H53.5981L59.4518 42.7679H58.5962L64.4049 27.0691H67.2867V43.356H65.4631V28.0418H65.7107L60.0597 43.356H57.8533L52.2022 28.1776H52.4499V43.356H50.7613Z" fill="#080122"/>
<path d="M39.9741 43.5822C38.8484 43.5822 37.8127 43.3786 36.8672 42.9715C35.9366 42.5492 35.1261 41.9611 34.4356 41.207C33.7452 40.4379 33.2049 39.5407 32.8146 38.5152C32.4394 37.4897 32.2518 36.3662 32.2518 35.1447C32.2518 33.5311 32.582 32.0985 33.2424 30.8468C33.9028 29.5951 34.8109 28.6149 35.9666 27.9061C37.1373 27.1973 38.4657 26.8429 39.9516 26.8429C41.4675 26.8429 42.8034 27.1973 43.9591 27.9061C45.1298 28.6149 46.0454 29.5951 46.7058 30.8468C47.3662 32.0985 47.6964 33.5386 47.6964 35.1673C47.6964 36.3888 47.5013 37.5123 47.1111 38.5378C46.7358 39.5633 46.203 40.453 45.5126 41.207C44.8221 41.9611 44.0041 42.5492 43.0585 42.9715C42.1129 43.3786 41.0848 43.5822 39.9741 43.5822ZM39.9516 41.9083C41.1073 41.9083 42.1204 41.6218 42.991 41.0487C43.8765 40.4606 44.567 39.6538 45.0623 38.6283C45.5576 37.6028 45.8052 36.4341 45.8052 35.1221C45.8052 33.8252 45.5576 32.6791 45.0623 31.6838C44.582 30.6884 43.8991 29.9118 43.0135 29.3538C42.143 28.7958 41.1223 28.5169 39.9516 28.5169C38.7809 28.5169 37.7602 28.7958 36.8897 29.3538C36.0191 29.9118 35.3437 30.6884 34.8634 31.6838C34.3831 32.664 34.1429 33.8101 34.1429 35.1221C34.1429 36.4492 34.3831 37.6254 34.8634 38.6509C35.3587 39.6613 36.0416 40.4606 36.9122 41.0487C37.7827 41.6218 38.7959 41.9083 39.9516 41.9083Z" fill="#080122"/>
<path d="M22.1651 43.5822C21.0394 43.5822 20.0037 43.3786 19.0581 42.9715C18.1276 42.5492 17.3171 41.9611 16.6266 41.207C15.9362 40.4379 15.3959 39.5407 15.0056 38.5152C14.6304 37.4897 14.4428 36.3662 14.4428 35.1447C14.4428 33.5311 14.773 32.0985 15.4334 30.8468C16.0938 29.5951 17.0019 28.6149 18.1576 27.9061C19.3283 27.1973 20.6567 26.8429 22.1426 26.8429C23.6585 26.8429 24.9944 27.1973 26.1501 27.9061C27.3208 28.6149 28.2364 29.5951 28.8968 30.8468C29.5572 32.0985 29.8874 33.5386 29.8874 35.1673C29.8874 36.3888 29.6923 37.5123 29.3021 38.5378C28.9268 39.5633 28.394 40.453 27.7036 41.207C27.0131 41.9611 26.1951 42.5492 25.2495 42.9715C24.3039 43.3786 23.2758 43.5822 22.1651 43.5822ZM22.1426 41.9083C23.2983 41.9083 24.3114 41.6218 25.182 41.0487C26.0675 40.4606 26.758 39.6538 27.2533 38.6283C27.7486 37.6028 27.9962 36.4341 27.9962 35.1221C27.9962 33.8252 27.7486 32.6791 27.2533 31.6838C26.773 30.6884 26.0901 29.9118 25.2045 29.3538C24.334 28.7958 23.3133 28.5169 22.1426 28.5169C20.9718 28.5169 19.9512 28.7958 19.0807 29.3538C18.2101 29.9118 17.5347 30.6884 17.0544 31.6838C16.5741 32.664 16.3339 33.8101 16.3339 35.1221C16.3339 36.4492 16.5741 37.6254 17.0544 38.6509C17.5497 39.6613 18.2326 40.4606 19.1032 41.0487C19.9737 41.6218 20.9869 41.9083 22.1426 41.9083Z" fill="#080122"/>
<path d="M0.67627 43.356V27.0691H6.66502C7.82074 27.0691 8.80386 27.2576 9.61437 27.6347C10.4249 28.0117 11.0403 28.5395 11.4605 29.2181C11.8958 29.8816 12.1134 30.6734 12.1134 31.5933C12.1134 32.5132 11.8958 33.32 11.4605 34.0137C11.0403 34.6923 10.4249 35.2277 9.61437 35.6197C8.80386 35.9968 7.82074 36.1853 6.66502 36.1853H2.02712V34.5566H6.59748C7.79823 34.5566 8.7063 34.2927 9.32168 33.7649C9.95208 33.237 10.2673 32.5132 10.2673 31.5933C10.2673 30.6884 9.95958 29.9797 9.3442 29.4669C8.72881 28.9542 7.81324 28.6978 6.59748 28.6978H2.52243V43.356H0.67627ZM10.1772 43.356L1.55432 35.2804H4.0759L12.969 43.356H10.1772Z" fill="#080122"/>
</svg>
