<svg width="94" height="48" viewBox="0 0 94 48" fill="none" xmlns="http://www.w3.org/2000/svg">
<path d="M0.828613 5.94238V24.2281H4.60569V9.39425L8.95192 24.2281H13.0653L17.4374 9.32694V24.2281H21.3697V5.94238H15.1349L11.0862 19.7343L7.03751 5.94238H0.828613Z" fill="white"/>
<path d="M23.9452 24.2281V5.94238H27.9293V24.2281H23.9452Z" fill="white"/>
<path d="M30.5139 5.94238V24.2281H34.3945V10.5491L41.4053 24.2281H46.5535V5.94238H42.673V19.6214L35.6621 5.94238H30.5139Z" fill="white"/>
<path d="M49.1335 5.94238V24.2281H63V21.2313H53.1175V16.3551H62.0946V13.409H53.1175V8.93921H62.6896V5.94238H49.1335Z" fill="white"/>
<path d="M70.0402 1.94283H68.9126V3.65712H70.0402V1.94283Z" fill="#9B8741"/>
<path d="M70.0402 4.79999H68.9126V6.51428H70.0402V4.79999Z" fill="#9B8741"/>
<path d="M70.0402 7.65709H68.9126V9.37138H70.0402V7.65709Z" fill="#9B8741"/>
<path d="M70.0402 10.5143H68.9126V12.2285H70.0402V10.5143Z" fill="#9B8741"/>
<path d="M70.0402 13.3714H68.9126V15.0857H70.0402V13.3714Z" fill="#9B8741"/>
<path d="M68.9126 16.2285H70.0402V17.9428H68.9126V16.2285Z" fill="#9B8741"/>
<path d="M72.2954 16.2285H71.1678V17.9428H72.2954V16.2285Z" fill="#9B8741"/>
<path d="M74.5506 16.2285H73.423V17.9428H74.5506V16.2285Z" fill="#9B8741"/>
<path d="M76.8059 16.2285H75.6783V17.9428H76.8059V16.2285Z" fill="#9B8741"/>
<path d="M72.2954 13.3714H71.1678V15.0857H72.2954V13.3714Z" fill="#9B8741"/>
<path d="M74.5506 13.3714H73.423V15.0857H74.5506V13.3714Z" fill="#9B8741"/>
<path d="M76.8059 13.3714H75.6783V15.0857H76.8059V13.3714Z" fill="#9B8741"/>
<path d="M72.2954 10.5143H71.1678V12.2285H72.2954V10.5143Z" fill="#9B8741"/>
<path d="M74.5506 10.5143H73.423V12.2285H74.5506V10.5143Z" fill="#9B8741"/>
<path d="M76.8059 10.5143H75.6783V12.2285H76.8059V10.5143Z" fill="#9B8741"/>
<path d="M72.2954 7.65709H71.1678V9.37138H72.2954V7.65709Z" fill="#9B8741"/>
<path d="M74.5506 7.65709H73.423V9.37138H74.5506V7.65709Z" fill="#9B8741"/>
<path d="M76.8059 7.65709H75.6783V9.37138H76.8059V7.65709Z" fill="#9B8741"/>
<path d="M72.2954 4.79999H71.1678V6.51428H72.2954V4.79999Z" fill="#9B8741"/>
<path d="M74.5506 4.79999H73.423V6.51428H74.5506V4.79999Z" fill="#9B8741"/>
<path d="M76.8059 4.79999H75.6783V6.51428H76.8059V4.79999Z" fill="#9B8741"/>
<path d="M72.2954 1.94283H71.1678V3.65712H72.2954V1.94283Z" fill="#9B8741"/>
<path d="M74.5506 1.94283H73.423V3.65712H74.5506V1.94283Z" fill="#9B8741"/>
<path d="M76.8059 1.94283H75.6783V3.65712H76.8059V1.94283Z" fill="#9B8741"/>
<path d="M80.1887 19.0857H81.3163V20.8H80.1887V19.0857Z" fill="#9B8741"/>
<path d="M80.1887 16.2285H81.3163V17.9428H80.1887V16.2285Z" fill="#9B8741"/>
<path d="M80.1887 13.3714H81.3163V15.0857H80.1887V13.3714Z" fill="#9B8741"/>
<path d="M80.1887 10.5143H81.3163V12.2285H80.1887V10.5143Z" fill="#9B8741"/>
<path d="M80.1887 7.65709H81.3163V9.37138H80.1887V7.65709Z" fill="#9B8741"/>
<path d="M80.1887 4.79999H81.3163V6.51428H80.1887V4.79999Z" fill="#9B8741"/>
<path fill-rule="evenodd" clip-rule="evenodd" d="M80.1888 0V1.14289H79.0611V2.2857H84.6992V3.42857H83.5716V23.0857H85.573C86.1314 19.7011 86.9204 18.5995 87.613 17.6325C87.7201 17.4831 87.8248 17.3369 87.926 17.186C86.7085 17.5506 86.0175 17.976 84.6374 19.1023C84.603 19.1297 84.5622 19.1483 84.5186 19.1563C84.4751 19.1644 84.4302 19.1618 84.3881 19.1486C84.3462 19.1334 84.3089 19.1082 84.2796 19.0754C84.2504 19.0425 84.2302 19.003 84.2208 18.9605C83.7685 16.9508 85.6706 16.313 87.3259 16.394C86.1791 15.8524 85.4753 15.7131 84.6041 15.5406C84.484 15.5169 84.3607 15.4925 84.2327 15.4663C84.1876 15.4569 84.146 15.436 84.112 15.4057C84.078 15.3755 84.0529 15.3371 84.0393 15.2943C84.0262 15.2518 84.0252 15.2066 84.0363 15.1635C84.0474 15.1204 84.0702 15.081 84.1023 15.0493C85.1568 13.9415 86.4574 13.9253 87.4623 14.838C86.6617 13.3486 85.9201 12.8675 85.8789 12.8408L85.8772 12.8397C85.8316 12.8128 85.7958 12.7727 85.775 12.725C85.7541 12.6773 85.7491 12.6244 85.7607 12.5736C85.7724 12.5229 85.8 12.4769 85.8398 12.442C85.8796 12.4072 85.9295 12.3853 85.9826 12.3793C88.3718 12.0659 89.2098 13.8235 88.9952 15.6973C90.1755 14.3598 91.812 14.4714 93.1113 16.0503C93.1459 16.0899 93.1667 16.1391 93.1708 16.1909C93.1749 16.2428 93.162 16.2946 93.1341 16.3391C93.1056 16.3836 93.0637 16.4185 93.0142 16.4391C92.9647 16.4597 92.9099 16.465 92.8574 16.4542C91.725 16.242 90.555 16.3042 89.4506 16.6354C91.3489 17.0435 92.2301 18.4339 91.0204 20.3907C90.9934 20.4372 90.9517 20.4741 90.9016 20.496C90.8515 20.5179 90.7956 20.5236 90.742 20.5123C90.6885 20.5009 90.6402 20.4732 90.6042 20.4331C90.5683 20.393 90.5466 20.3427 90.5423 20.2896C90.3251 19.0712 89.6682 17.97 88.6892 17.1834C88.5979 17.4872 88.4777 17.8084 88.343 18.1686C87.8749 19.4199 87.2312 21.1407 87.0128 24.2247C87.0128 24.2247 86.9169 24.2251 86.7715 24.2257V24.2285H85.7585C85.7131 24.2286 85.6701 24.2286 85.6306 24.2285H66.6572L66.6573 0H80.1888ZM77.9335 23.0857V1.14289H67.7849V23.0857H69.4764V19.6571C69.4764 19.3411 69.729 19.0857 70.0402 19.0857H75.6783C75.9901 19.0857 76.242 19.3411 76.242 19.6571V23.0857H77.9335ZM79.0611 23.0857H82.444V3.42857H79.0611V23.0857ZM72.2954 23.0857H70.6039V20.2285H72.2954V23.0857ZM75.1144 23.0857H73.423V20.2285H75.1144V23.0857Z" fill="#9B8741"/>
<path d="M83.718 47.5179C81.6549 47.5179 80.0093 47.0079 78.7812 45.9879C77.5696 44.9679 76.8573 43.512 76.6445 41.6201H78.6093C78.7894 42.9855 79.3052 44.0137 80.1567 44.7047C81.0081 45.3956 82.187 45.7411 83.6934 45.7411C84.9706 45.7411 85.9285 45.5026 86.567 45.0255C87.222 44.5319 87.5495 43.8163 87.5495 42.8786C87.5495 42.0725 87.3284 41.4309 86.8863 40.9538C86.4442 40.4767 85.7565 40.0819 84.8232 39.7693L81.8513 38.7328C80.345 38.2064 79.2315 37.573 78.5111 36.8327C77.7906 36.0759 77.4304 35.1218 77.4304 33.9702C77.4304 33.016 77.6678 32.1934 78.1427 31.5024C78.6175 30.795 79.2888 30.2439 80.1567 29.8491C81.0245 29.4543 82.0315 29.2568 83.1776 29.2568C84.946 29.2568 86.3624 29.7257 87.4267 30.6634C88.491 31.5847 89.105 32.9008 89.2687 34.6118H87.3039C87.091 33.3779 86.6489 32.4731 85.9776 31.8973C85.3226 31.3215 84.3729 31.0336 83.1285 31.0336C81.9496 31.0336 81.0327 31.2721 80.3777 31.7492C79.7227 32.2263 79.3953 32.9008 79.3953 33.7727C79.3953 34.5131 79.6245 35.1053 80.083 35.5495C80.5414 35.9937 81.2537 36.3803 82.2198 36.7093L85.3881 37.8198C86.7635 38.2969 87.7951 38.9467 88.4828 39.7693C89.1705 40.5754 89.5143 41.6036 89.5143 42.8539C89.5143 44.3345 89.0067 45.4861 87.9916 46.3087C86.9928 47.1148 85.5682 47.5179 83.718 47.5179Z" fill="white"/>
<path d="M55.4669 47.2958V29.5283H58.5615L64.9474 46.6542H64.014L70.3507 29.5283H73.4945V47.2958H71.5051V30.5894H71.7753L65.6105 47.2958H63.2035L57.0388 30.7375H57.3089V47.2958H55.4669Z" fill="white"/>
<path d="M43.699 47.5426C42.4709 47.5426 41.3411 47.3205 40.3096 46.8763C39.2944 46.4156 38.4102 45.774 37.657 44.9515C36.9038 44.1124 36.3143 43.1336 35.8886 42.0149C35.4793 40.8962 35.2746 39.6706 35.2746 38.338C35.2746 36.5777 35.6348 35.0148 36.3553 33.6494C37.0757 32.2839 38.0664 31.2145 39.3271 30.4413C40.6043 29.6681 42.0534 29.2815 43.6744 29.2815C45.3282 29.2815 46.7854 29.6681 48.0462 30.4413C49.3234 31.2145 50.3222 32.2839 51.0427 33.6494C51.7631 35.0148 52.1233 36.5859 52.1233 38.3627C52.1233 39.6952 51.9105 40.9209 51.4848 42.0396C51.0754 43.1583 50.4941 44.1289 49.7409 44.9515C48.9877 45.774 48.0954 46.4156 47.0638 46.8763C46.0323 47.3205 44.9106 47.5426 43.699 47.5426ZM43.6744 45.7164C44.9352 45.7164 46.0404 45.4039 46.9901 44.7787C47.9562 44.1371 48.7094 43.257 49.2497 42.1383C49.7901 41.0196 50.0602 39.7446 50.0602 38.3133C50.0602 36.8985 49.7901 35.6482 49.2497 34.5624C48.7258 33.4766 47.9807 32.6294 47.0147 32.0207C46.065 31.412 44.9516 31.1076 43.6744 31.1076C42.3972 31.1076 41.2838 31.412 40.3341 32.0207C39.3845 32.6294 38.6476 33.4766 38.1237 34.5624C37.5997 35.6317 37.3377 36.8821 37.3377 38.3133C37.3377 39.761 37.5997 41.0443 38.1237 42.1629C38.664 43.2652 39.409 44.1371 40.3587 44.7787C41.3084 45.4039 42.4136 45.7164 43.6744 45.7164Z" fill="white"/>
<path d="M24.271 47.5426C23.0429 47.5426 21.9131 47.3205 20.8816 46.8763C19.8664 46.4156 18.9822 45.774 18.229 44.9515C17.4758 44.1124 16.8863 43.1336 16.4606 42.0149C16.0513 40.8962 15.8466 39.6706 15.8466 38.338C15.8466 36.5777 16.2068 35.0148 16.9273 33.6494C17.6477 32.2839 18.6383 31.2145 19.8991 30.4413C21.1763 29.6681 22.6254 29.2815 24.2464 29.2815C25.9002 29.2815 27.3574 29.6681 28.6182 30.4413C29.8954 31.2145 30.8942 32.2839 31.6147 33.6494C32.3351 35.0148 32.6953 36.5859 32.6953 38.3627C32.6953 39.6952 32.4825 40.9209 32.0568 42.0396C31.6474 43.1583 31.0661 44.1289 30.3129 44.9515C29.5597 45.774 28.6674 46.4156 27.6358 46.8763C26.6042 47.3205 25.4826 47.5426 24.271 47.5426ZM24.2464 45.7164C25.5072 45.7164 26.6124 45.4039 27.5621 44.7787C28.5282 44.1371 29.2814 43.257 29.8217 42.1383C30.3621 41.0196 30.6322 39.7446 30.6322 38.3133C30.6322 36.8985 30.3621 35.6482 29.8217 34.5624C29.2978 33.4766 28.5527 32.6294 27.5867 32.0207C26.637 31.412 25.5236 31.1076 24.2464 31.1076C22.9692 31.1076 21.8558 31.412 20.9061 32.0207C19.9564 32.6294 19.2196 33.4766 18.6957 34.5624C18.1717 35.6317 17.9097 36.8821 17.9097 38.3133C17.9097 39.761 18.1717 41.0443 18.6957 42.1629C19.236 43.2652 19.981 44.1371 20.9307 44.7787C21.8804 45.4039 22.9856 45.7164 24.2464 45.7164Z" fill="white"/>
<path d="M0.828613 47.2958V29.5283H7.3618C8.62259 29.5283 9.69508 29.7339 10.5793 30.1452C11.4635 30.5565 12.1348 31.1323 12.5933 31.8726C13.0681 32.5965 13.3055 33.4602 13.3055 34.4637C13.3055 35.4672 13.0681 36.3474 12.5933 37.1041C12.1348 37.8445 11.4635 38.4285 10.5793 38.8562C9.69508 39.2675 8.62259 39.4731 7.3618 39.4731H2.30226V37.6964H7.28811C8.59802 37.6964 9.58864 37.4085 10.26 36.8327C10.9477 36.2569 11.2915 35.4672 11.2915 34.4637C11.2915 33.4766 10.9559 32.7034 10.2845 32.1441C9.61321 31.5847 8.6144 31.305 7.28811 31.305H2.8426V47.2958H0.828613ZM11.1933 47.2958L1.78649 38.4861H4.5373L14.2388 47.2958H11.1933Z" fill="white"/>
</svg>
