<svg width="86" height="48" viewBox="0 0 86 48" fill="none" xmlns="http://www.w3.org/2000/svg">
<path d="M0.67627 7.44922V24.2111H4.13859V10.6134L8.12263 24.2111H11.8932L15.901 10.5517V24.2111H19.5056V7.44922H13.7904L10.0791 20.0918L6.36776 7.44922H0.67627Z" fill="#220102"/>
<path d="M21.8665 24.2111V7.44922H25.5185V24.2111H21.8665Z" fill="#220102"/>
<path d="M27.8878 7.44922V24.2111H31.445V11.672L37.8716 24.2111H42.5908V7.44922H39.0336V19.9883L32.607 7.44922H27.8878Z" fill="#220102"/>
<path d="M44.9558 7.44922V24.2111H57.6667V21.464H48.6078V16.9942H56.8367V14.2937H48.6078V10.1963H57.3822V7.44922H44.9558Z" fill="#220102"/>
<path d="M64.1201 3.78093H63.0864V5.35236H64.1201V3.78093Z" fill="#7B002C"/>
<path d="M64.1201 6.39999H63.0864V7.97143H64.1201V6.39999Z" fill="#7B002C"/>
<path d="M64.1201 9.019H63.0864V10.5904H64.1201V9.019Z" fill="#7B002C"/>
<path d="M64.1201 11.6381H63.0864V13.2095H64.1201V11.6381Z" fill="#7B002C"/>
<path d="M64.1201 14.2571H63.0864V15.8286H64.1201V14.2571Z" fill="#7B002C"/>
<path d="M63.0864 16.8761H64.1201V18.4476H63.0864V16.8761Z" fill="#7B002C"/>
<path d="M66.1874 16.8761H65.1537V18.4476H66.1874V16.8761Z" fill="#7B002C"/>
<path d="M68.2547 16.8761H67.221V18.4476H68.2547V16.8761Z" fill="#7B002C"/>
<path d="M70.322 16.8761H69.2883V18.4476H70.322V16.8761Z" fill="#7B002C"/>
<path d="M66.1874 14.2571H65.1537V15.8286H66.1874V14.2571Z" fill="#7B002C"/>
<path d="M68.2547 14.2571H67.221V15.8286H68.2547V14.2571Z" fill="#7B002C"/>
<path d="M70.322 14.2571H69.2883V15.8286H70.322V14.2571Z" fill="#7B002C"/>
<path d="M66.1874 11.6381H65.1537V13.2095H66.1874V11.6381Z" fill="#7B002C"/>
<path d="M68.2547 11.6381H67.221V13.2095H68.2547V11.6381Z" fill="#7B002C"/>
<path d="M70.322 11.6381H69.2883V13.2095H70.322V11.6381Z" fill="#7B002C"/>
<path d="M66.1874 9.019H65.1537V10.5904H66.1874V9.019Z" fill="#7B002C"/>
<path d="M68.2547 9.019H67.221V10.5904H68.2547V9.019Z" fill="#7B002C"/>
<path d="M70.322 9.019H69.2883V10.5904H70.322V9.019Z" fill="#7B002C"/>
<path d="M66.1874 6.39999H65.1537V7.97143H66.1874V6.39999Z" fill="#7B002C"/>
<path d="M68.2547 6.39999H67.221V7.97143H68.2547V6.39999Z" fill="#7B002C"/>
<path d="M70.322 6.39999H69.2883V7.97143H70.322V6.39999Z" fill="#7B002C"/>
<path d="M66.1874 3.78093H65.1537V5.35236H66.1874V3.78093Z" fill="#7B002C"/>
<path d="M68.2547 3.78093H67.221V5.35236H68.2547V3.78093Z" fill="#7B002C"/>
<path d="M70.322 3.78093H69.2883V5.35236H70.322V3.78093Z" fill="#7B002C"/>
<path d="M73.4229 19.4952H74.4566V21.0666H73.4229V19.4952Z" fill="#7B002C"/>
<path d="M73.4229 16.8761H74.4566V18.4476H73.4229V16.8761Z" fill="#7B002C"/>
<path d="M73.4229 14.2571H74.4566V15.8286H73.4229V14.2571Z" fill="#7B002C"/>
<path d="M73.4229 11.6381H74.4566V13.2095H73.4229V11.6381Z" fill="#7B002C"/>
<path d="M73.4229 9.019H74.4566V10.5904H73.4229V9.019Z" fill="#7B002C"/>
<path d="M73.4229 6.39999H74.4566V7.97143H73.4229V6.39999Z" fill="#7B002C"/>
<path fill-rule="evenodd" clip-rule="evenodd" d="M73.423 2V3.04765H72.3893V4.09522H77.5575V5.14285H76.5238V23.1619H78.3585C78.8703 20.0593 79.5937 19.0495 80.2285 18.1632C80.3266 18.0262 80.4226 17.8922 80.5154 17.7538C79.3994 18.088 78.766 18.478 77.5008 19.5105C77.4694 19.5355 77.4319 19.5526 77.392 19.56C77.3521 19.5674 77.3109 19.5649 77.2723 19.5529C77.2339 19.539 77.1997 19.5159 77.1729 19.4858C77.1461 19.4556 77.1276 19.4194 77.119 19.3804C76.7044 17.5383 78.448 16.9536 79.9654 17.0279C78.9141 16.5313 78.2689 16.4037 77.4703 16.2456C77.3602 16.2238 77.2472 16.2014 77.1299 16.1775C77.0886 16.1688 77.0504 16.1496 77.0192 16.1219C76.9881 16.0942 76.9651 16.059 76.9526 16.0197C76.9406 15.9808 76.9397 15.9394 76.9498 15.8999C76.96 15.8604 76.9809 15.8242 77.0104 15.7952C77.977 14.7797 79.1692 14.7649 80.0904 15.6015C79.3565 14.2362 78.6767 13.7952 78.6389 13.7707L78.6373 13.7697C78.5955 13.7451 78.5628 13.7083 78.5436 13.6646C78.5245 13.6208 78.5199 13.5723 78.5306 13.5258C78.5412 13.4793 78.5666 13.4371 78.6031 13.4052C78.6395 13.3732 78.6853 13.3532 78.734 13.3477C80.924 13.0604 81.6922 14.6716 81.4955 16.3892C82.5774 15.1631 84.0776 15.2654 85.2686 16.7128C85.3003 16.749 85.3194 16.7941 85.3231 16.8417C85.3269 16.8892 85.3151 16.9368 85.2895 16.9775C85.2634 17.0183 85.225 17.0503 85.1796 17.0691C85.1342 17.088 85.084 17.0929 85.0358 17.0831C83.9979 16.8885 82.9254 16.9455 81.913 17.2491C83.653 17.6232 84.4608 18.8977 83.352 20.6915C83.3272 20.7341 83.289 20.7679 83.2431 20.788C83.1971 20.8081 83.1459 20.8133 83.0968 20.8029C83.0477 20.7925 83.0034 20.7671 82.9705 20.7303C82.9375 20.6936 82.9176 20.6475 82.9137 20.5988C82.7146 19.4819 82.1124 18.4725 81.215 17.7515C81.1313 18.0299 81.0212 18.3244 80.8977 18.6546C80.4686 19.8016 79.8785 21.379 79.6783 24.2059C79.6783 24.2059 79.5904 24.2063 79.4571 24.2069V24.2095H78.5286C78.4869 24.2095 78.4475 24.2095 78.4113 24.2095L61.019 24.2095L61.0191 2H73.423ZM71.3556 23.1619V3.04765H62.0527V23.1619H63.6033V20.019C63.6033 19.7293 63.8348 19.4952 64.1201 19.4952H69.2883C69.5741 19.4952 69.8051 19.7293 69.8051 20.019V23.1619H71.3556ZM72.3893 23.1619H75.4902V5.14285H72.3893V23.1619ZM66.1874 23.1619H64.6368V20.5428H66.1874V23.1619ZM68.7715 23.1619H67.221V20.5428H68.7715V23.1619Z" fill="#7B002C"/>
<path d="M76.6582 45.5596C74.767 45.5596 73.2586 45.0921 72.1329 44.1571C71.0222 43.2221 70.3692 41.8875 70.1741 40.1533H71.9753C72.1404 41.4049 72.6132 42.3475 73.3936 42.9808C74.1741 43.6142 75.2548 43.9309 76.6357 43.9309C77.8064 43.9309 78.6845 43.7122 79.2698 43.2749C79.8702 42.8225 80.1704 42.1665 80.1704 41.3069C80.1704 40.568 79.9678 39.9798 79.5625 39.5425C79.1572 39.1052 78.5269 38.7432 77.6713 38.4567L74.9471 37.5066C73.5662 37.0241 72.5456 36.4435 71.8852 35.7649C71.2248 35.0712 70.8946 34.1965 70.8946 33.1409C70.8946 32.2662 71.1122 31.5122 71.5475 30.8788C71.9828 30.2303 72.5981 29.7251 73.3936 29.3632C74.1891 29.0013 75.1122 28.8203 76.1629 28.8203C77.7839 28.8203 79.0822 29.2501 80.0578 30.1097C81.0334 30.9542 81.5963 32.1606 81.7464 33.729H79.9452C79.7501 32.598 79.3449 31.7685 78.7295 31.2407C78.1291 30.7129 77.2586 30.449 76.1179 30.449C75.0372 30.449 74.1966 30.6677 73.5963 31.105C72.9959 31.5423 72.6957 32.1606 72.6957 32.9599C72.6957 33.6385 72.9058 34.1814 73.3261 34.5886C73.7464 34.9958 74.3993 35.3501 75.2848 35.6518L78.1891 36.6697C79.4499 37.107 80.3955 37.7027 81.0259 38.4567C81.6563 39.1957 81.9715 40.1382 81.9715 41.2843C81.9715 42.6415 81.5062 43.6972 80.5756 44.4512C79.6601 45.1901 78.3542 45.5596 76.6582 45.5596Z" fill="#220102"/>
<path d="M50.7613 45.356V29.0691H53.5981L59.4518 44.7679H58.5962L64.4049 29.0691H67.2867V45.356H65.4631V30.0418H65.7107L60.0597 45.356H57.8533L52.2022 30.1776H52.4499V45.356H50.7613Z" fill="#220102"/>
<path d="M39.9741 45.5822C38.8484 45.5822 37.8127 45.3786 36.8672 44.9715C35.9366 44.5492 35.1261 43.9611 34.4356 43.207C33.7452 42.4379 33.2049 41.5407 32.8146 40.5152C32.4394 39.4897 32.2518 38.3662 32.2518 37.1447C32.2518 35.5311 32.582 34.0985 33.2424 32.8468C33.9028 31.5951 34.8109 30.6149 35.9666 29.9061C37.1373 29.1973 38.4657 28.8429 39.9516 28.8429C41.4675 28.8429 42.8034 29.1973 43.9591 29.9061C45.1298 30.6149 46.0454 31.5951 46.7058 32.8468C47.3662 34.0985 47.6964 35.5386 47.6964 37.1673C47.6964 38.3888 47.5013 39.5123 47.1111 40.5378C46.7358 41.5633 46.203 42.453 45.5126 43.207C44.8221 43.9611 44.0041 44.5492 43.0585 44.9715C42.1129 45.3786 41.0848 45.5822 39.9741 45.5822ZM39.9516 43.9083C41.1073 43.9083 42.1204 43.6218 42.991 43.0487C43.8765 42.4606 44.567 41.6538 45.0623 40.6283C45.5576 39.6028 45.8052 38.4341 45.8052 37.1221C45.8052 35.8252 45.5576 34.6791 45.0623 33.6838C44.582 32.6884 43.8991 31.9118 43.0135 31.3538C42.143 30.7958 41.1223 30.5169 39.9516 30.5169C38.7809 30.5169 37.7602 30.7958 36.8897 31.3538C36.0191 31.9118 35.3437 32.6884 34.8634 33.6838C34.3831 34.664 34.1429 35.8101 34.1429 37.1221C34.1429 38.4492 34.3831 39.6254 34.8634 40.6509C35.3587 41.6613 36.0416 42.4606 36.9122 43.0487C37.7827 43.6218 38.7959 43.9083 39.9516 43.9083Z" fill="#220102"/>
<path d="M22.1651 45.5822C21.0394 45.5822 20.0037 45.3786 19.0581 44.9715C18.1276 44.5492 17.3171 43.9611 16.6266 43.207C15.9362 42.4379 15.3959 41.5407 15.0056 40.5152C14.6304 39.4897 14.4428 38.3662 14.4428 37.1447C14.4428 35.5311 14.773 34.0985 15.4334 32.8468C16.0938 31.5951 17.0019 30.6149 18.1576 29.9061C19.3283 29.1973 20.6567 28.8429 22.1426 28.8429C23.6585 28.8429 24.9944 29.1973 26.1501 29.9061C27.3208 30.6149 28.2364 31.5951 28.8968 32.8468C29.5572 34.0985 29.8874 35.5386 29.8874 37.1673C29.8874 38.3888 29.6923 39.5123 29.3021 40.5378C28.9268 41.5633 28.394 42.453 27.7036 43.207C27.0131 43.9611 26.1951 44.5492 25.2495 44.9715C24.3039 45.3786 23.2758 45.5822 22.1651 45.5822ZM22.1426 43.9083C23.2983 43.9083 24.3114 43.6218 25.182 43.0487C26.0675 42.4606 26.758 41.6538 27.2533 40.6283C27.7486 39.6028 27.9962 38.4341 27.9962 37.1221C27.9962 35.8252 27.7486 34.6791 27.2533 33.6838C26.773 32.6884 26.0901 31.9118 25.2045 31.3538C24.334 30.7958 23.3133 30.5169 22.1426 30.5169C20.9718 30.5169 19.9512 30.7958 19.0807 31.3538C18.2101 31.9118 17.5347 32.6884 17.0544 33.6838C16.5741 34.664 16.3339 35.8101 16.3339 37.1221C16.3339 38.4492 16.5741 39.6254 17.0544 40.6509C17.5497 41.6613 18.2326 42.4606 19.1032 43.0487C19.9737 43.6218 20.9869 43.9083 22.1426 43.9083Z" fill="#220102"/>
<path d="M0.67627 45.356V29.0691H6.66502C7.82074 29.0691 8.80386 29.2576 9.61437 29.6347C10.4249 30.0117 11.0403 30.5395 11.4605 31.2181C11.8958 31.8816 12.1134 32.6734 12.1134 33.5933C12.1134 34.5132 11.8958 35.32 11.4605 36.0137C11.0403 36.6923 10.4249 37.2277 9.61437 37.6197C8.80386 37.9968 7.82074 38.1853 6.66502 38.1853H2.02712V36.5566H6.59748C7.79823 36.5566 8.7063 36.2927 9.32168 35.7649C9.95208 35.237 10.2673 34.5132 10.2673 33.5933C10.2673 32.6884 9.95958 31.9797 9.3442 31.4669C8.72881 30.9542 7.81324 30.6978 6.59748 30.6978H2.52243V45.356H0.67627ZM10.1772 45.356L1.55432 37.2804H4.0759L12.969 45.356H10.1772Z" fill="#220102"/>
</svg>
