<svg width="20" height="20" viewBox="0 0 20 20" fill="none" xmlns="http://www.w3.org/2000/svg">
<path d="M15.5053 6.98845C15.298 6.78232 15.0175 6.66663 14.7251 6.66663C14.4327 6.66663 14.1522 6.78232 13.9448 6.98845L9.97168 10.9063L6.05387 6.98845C5.84651 6.78232 5.56601 6.66663 5.27363 6.66663C4.98124 6.66663 4.70074 6.78232 4.49338 6.98845C4.38965 7.09134 4.30732 7.21374 4.25113 7.34861C4.19494 7.48347 4.16602 7.62813 4.16602 7.77423C4.16602 7.92033 4.19494 8.06499 4.25113 8.19985C4.30732 8.33472 4.38965 8.45712 4.49338 8.56001L9.1859 13.2525C9.28879 13.3563 9.41119 13.4386 9.54606 13.4948C9.68092 13.551 9.82558 13.5799 9.97168 13.5799C10.1178 13.5799 10.2624 13.551 10.3973 13.4948C10.5322 13.4386 10.6546 13.3563 10.7575 13.2525L15.5053 8.56001C15.609 8.45712 15.6914 8.33472 15.7476 8.19985C15.8038 8.06499 15.8327 7.92033 15.8327 7.77423C15.8327 7.62813 15.8038 7.48347 15.7476 7.34861C15.6914 7.21374 15.609 7.09134 15.5053 6.98845Z" fill="#0054A4"/>
<path d="M15.5053 6.98845C15.298 6.78232 15.0175 6.66663 14.7251 6.66663C14.4327 6.66663 14.1522 6.78232 13.9448 6.98845L9.97168 10.9063L6.05387 6.98845C5.84651 6.78232 5.56601 6.66663 5.27363 6.66663C4.98124 6.66663 4.70074 6.78232 4.49338 6.98845C4.38965 7.09134 4.30732 7.21374 4.25113 7.34861C4.19494 7.48347 4.16602 7.62813 4.16602 7.77423C4.16602 7.92033 4.19494 8.06499 4.25113 8.19985C4.30732 8.33472 4.38965 8.45712 4.49338 8.56001L9.1859 13.2525C9.28879 13.3563 9.41119 13.4386 9.54606 13.4948C9.68092 13.551 9.82558 13.5799 9.97168 13.5799C10.1178 13.5799 10.2624 13.551 10.3973 13.4948C10.5322 13.4386 10.6546 13.3563 10.7575 13.2525L15.5053 8.56001C15.609 8.45712 15.6914 8.33472 15.7476 8.19985C15.8038 8.06499 15.8327 7.92033 15.8327 7.77423C15.8327 7.62813 15.8038 7.48347 15.7476 7.34861C15.6914 7.21374 15.609 7.09134 15.5053 6.98845Z" fill="black" fill-opacity="0.6"/>
</svg>
