<svg width="20" height="20" viewBox="0 0 20 20" fill="none" xmlns="http://www.w3.org/2000/svg">
    <g clip-path="url(#clip0_11843_4166)">
        <path d="M15.5063 6.98849C15.2989 6.78236 15.0184 6.66666 14.726 6.66666C14.4337 6.66666 14.1532 6.78236 13.9458 6.98849L9.97266 10.9063L6.05484 6.98849C5.84749 6.78236 5.56698 6.66666 5.2746 6.66666C4.98222 6.66666 4.70172 6.78236 4.49436 6.98849C4.39063 7.09138 4.30829 7.21378 4.25211 7.34865C4.19592 7.48351 4.16699 7.62817 4.16699 7.77427C4.16699 7.92037 4.19592 8.06502 4.25211 8.19989C4.30829 8.33475 4.39063 8.45716 4.49436 8.56004L9.18688 13.2526C9.28976 13.3563 9.41217 13.4386 9.54703 13.4948C9.6819 13.551 9.82656 13.5799 9.97266 13.5799C10.1188 13.5799 10.2634 13.551 10.3983 13.4948C10.5331 13.4386 10.6555 13.3563 10.7584 13.2526L15.5063 8.56004C15.61 8.45716 15.6924 8.33475 15.7485 8.19989C15.8047 8.06502 15.8337 7.92037 15.8337 7.77427C15.8337 7.62817 15.8047 7.48351 15.7485 7.34865C15.6924 7.21378 15.61 7.09138 15.5063 6.98849Z"
              fill="#F9AB00"/>
    </g>
    <defs>
        <clipPath id="clip0_11843_4166">
            <rect width="20" height="20" fill="#F9AB00"/>
        </clipPath>
    </defs>
</svg>
