<svg width="20" height="21" viewBox="0 0 20 21" fill="none" xmlns="http://www.w3.org/2000/svg">
<g clip-path="url(#clip0_12789_12779)">
<path d="M14.1664 9.66667H7.84142L10.5914 6.92501C10.7483 6.76809 10.8365 6.55526 10.8365 6.33334C10.8365 6.11142 10.7483 5.89859 10.5914 5.74167C10.4345 5.58475 10.2217 5.4966 9.99975 5.4966C9.77783 5.4966 9.565 5.58475 9.40808 5.74167L5.24142 9.90834C5.16555 9.98759 5.10608 10.081 5.06642 10.1833C4.98307 10.3862 4.98307 10.6138 5.06642 10.8167C5.10608 10.919 5.16555 11.0124 5.24142 11.0917L9.40808 15.2583C9.48555 15.3364 9.57772 15.3984 9.67927 15.4408C9.78082 15.4831 9.88974 15.5048 9.99975 15.5048C10.1098 15.5048 10.2187 15.4831 10.3202 15.4408C10.4218 15.3984 10.5139 15.3364 10.5914 15.2583C10.6695 15.1809 10.7315 15.0887 10.7738 14.9872C10.8161 14.8856 10.8379 14.7767 10.8379 14.6667C10.8379 14.5567 10.8161 14.4477 10.7738 14.3462C10.7315 14.2446 10.6695 14.1525 10.5914 14.075L7.84142 11.3333H14.1664C14.3874 11.3333 14.5994 11.2455 14.7557 11.0893C14.912 10.933 14.9998 10.721 14.9998 10.5C14.9998 10.279 14.912 10.067 14.7557 9.91075C14.5994 9.75447 14.3874 9.66667 14.1664 9.66667Z" fill="#0054A4"/>
<path d="M14.1664 9.66667H7.84142L10.5914 6.92501C10.7483 6.76809 10.8365 6.55526 10.8365 6.33334C10.8365 6.11142 10.7483 5.89859 10.5914 5.74167C10.4345 5.58475 10.2217 5.4966 9.99975 5.4966C9.77783 5.4966 9.565 5.58475 9.40808 5.74167L5.24142 9.90834C5.16555 9.98759 5.10608 10.081 5.06642 10.1833C4.98307 10.3862 4.98307 10.6138 5.06642 10.8167C5.10608 10.919 5.16555 11.0124 5.24142 11.0917L9.40808 15.2583C9.48555 15.3364 9.57772 15.3984 9.67927 15.4408C9.78082 15.4831 9.88974 15.5048 9.99975 15.5048C10.1098 15.5048 10.2187 15.4831 10.3202 15.4408C10.4218 15.3984 10.5139 15.3364 10.5914 15.2583C10.6695 15.1809 10.7315 15.0887 10.7738 14.9872C10.8161 14.8856 10.8379 14.7767 10.8379 14.6667C10.8379 14.5567 10.8161 14.4477 10.7738 14.3462C10.7315 14.2446 10.6695 14.1525 10.5914 14.075L7.84142 11.3333H14.1664C14.3874 11.3333 14.5994 11.2455 14.7557 11.0893C14.912 10.933 14.9998 10.721 14.9998 10.5C14.9998 10.279 14.912 10.067 14.7557 9.91075C14.5994 9.75447 14.3874 9.66667 14.1664 9.66667Z" fill="black" fill-opacity="0.8"/>
<path d="M14.1664 9.66667H7.84142L10.5914 6.92501C10.7483 6.76809 10.8365 6.55526 10.8365 6.33334C10.8365 6.11142 10.7483 5.89859 10.5914 5.74167C10.4345 5.58475 10.2217 5.4966 9.99975 5.4966C9.77783 5.4966 9.565 5.58475 9.40808 5.74167L5.24142 9.90834C5.16555 9.98759 5.10608 10.081 5.06642 10.1833C4.98307 10.3862 4.98307 10.6138 5.06642 10.8167C5.10608 10.919 5.16555 11.0124 5.24142 11.0917L9.40808 15.2583C9.48555 15.3364 9.57772 15.3984 9.67927 15.4408C9.78082 15.4831 9.88974 15.5048 9.99975 15.5048C10.1098 15.5048 10.2187 15.4831 10.3202 15.4408C10.4218 15.3984 10.5139 15.3364 10.5914 15.2583C10.6695 15.1809 10.7315 15.0887 10.7738 14.9872C10.8161 14.8856 10.8379 14.7767 10.8379 14.6667C10.8379 14.5567 10.8161 14.4477 10.7738 14.3462C10.7315 14.2446 10.6695 14.1525 10.5914 14.075L7.84142 11.3333H14.1664C14.3874 11.3333 14.5994 11.2455 14.7557 11.0893C14.912 10.933 14.9998 10.721 14.9998 10.5C14.9998 10.279 14.912 10.067 14.7557 9.91075C14.5994 9.75447 14.3874 9.66667 14.1664 9.66667Z" fill="white" fill-opacity="0.2"/>
</g>
<defs>
<clipPath id="clip0_12789_12779">
<rect width="20" height="20" fill="white" transform="translate(0 0.5)"/>
</clipPath>
</defs>
</svg>
