<svg width="32" height="32" viewBox="0 0 32 32" fill="none"
     xmlns="http://www.w3.org/2000/svg">
    <circle cx="16" cy="16" r="15.5" stroke="#fff"/>
    <g clip-path="url(#clip0_11423_40289)">
        <path d="M23.3333 14.4733C23.3663 13.5191 23.1576 12.572 22.7266 11.72C22.4342 11.3704 22.0285 11.1345 21.58 11.0533C19.725 10.885 17.8623 10.816 16 10.8467C14.1444 10.8146 12.2884 10.8814 10.44 11.0467C10.0745 11.1131 9.73632 11.2846 9.46664 11.54C8.86664 12.0933 8.79998 13.04 8.73331 13.84C8.63659 15.2784 8.63659 16.7216 8.73331 18.16C8.7526 18.6103 8.81964 19.0572 8.93331 19.4933C9.01369 19.83 9.17633 20.1416 9.40664 20.4C9.67816 20.669 10.0242 20.8501 10.4 20.92C11.8373 21.0974 13.2855 21.1709 14.7333 21.14C17.0666 21.1733 19.1133 21.14 21.5333 20.9533C21.9183 20.8878 22.2741 20.7064 22.5533 20.4333C22.74 20.2466 22.8794 20.0181 22.96 19.7667C23.1984 19.0351 23.3155 18.2694 23.3066 17.5C23.3333 17.1267 23.3333 14.8733 23.3333 14.4733ZM14.4933 17.9V13.7733L18.44 15.8467C17.3333 16.46 15.8733 17.1533 14.4933 17.9Z"
              fill="#fff"/>
    </g>
    <defs>
        <clipPath id="clip0_11423_40289">
            <rect width="16" height="16" fill="white"
                  transform="translate(8 8)"/>
        </clipPath>
    </defs>
</svg>
