<svg width="20" height="20" viewBox="0 0 20 20" fill="none" xmlns="http://www.w3.org/2000/svg">
<g clip-path="url(#clip0_12150_1137)">
<path d="M10.0003 15.8333C10.1651 15.8333 10.3263 15.7844 10.4633 15.6929C10.6003 15.6013 10.7072 15.4712 10.7702 15.3189C10.8333 15.1666 10.8498 14.9991 10.8176 14.8374C10.7855 14.6758 10.7061 14.5273 10.5896 14.4107C10.473 14.2942 10.3246 14.2148 10.1629 14.1827C10.0013 14.1505 9.83369 14.167 9.68142 14.2301C9.52915 14.2932 9.399 14.4 9.30743 14.537C9.21587 14.674 9.16699 14.8352 9.16699 15C9.16699 15.221 9.25479 15.433 9.41107 15.5892C9.56735 15.7455 9.77931 15.8333 10.0003 15.8333ZM14.167 15.8333C14.3318 15.8333 14.4929 15.7844 14.63 15.6929C14.767 15.6013 14.8738 15.4712 14.9369 15.3189C15 15.1666 15.0165 14.9991 14.9843 14.8374C14.9522 14.6758 14.8728 14.5273 14.7562 14.4107C14.6397 14.2942 14.4912 14.2148 14.3296 14.1827C14.1679 14.1505 14.0004 14.167 13.8481 14.2301C13.6958 14.2932 13.5657 14.4 13.4741 14.537C13.3825 14.674 13.3337 14.8352 13.3337 15C13.3337 15.221 13.4215 15.433 13.5777 15.5892C13.734 15.7455 13.946 15.8333 14.167 15.8333ZM14.167 12.5C14.3318 12.5 14.4929 12.4511 14.63 12.3595C14.767 12.268 14.8738 12.1378 14.9369 11.9855C15 11.8333 15.0165 11.6657 14.9843 11.5041C14.9522 11.3424 14.8728 11.1939 14.7562 11.0774C14.6397 10.9608 14.4912 10.8815 14.3296 10.8493C14.1679 10.8172 14.0004 10.8337 13.8481 10.8967C13.6958 10.9598 13.5657 11.0666 13.4741 11.2037C13.3825 11.3407 13.3337 11.5018 13.3337 11.6666C13.3337 11.8877 13.4215 12.0996 13.5777 12.2559C13.734 12.4122 13.946 12.5 14.167 12.5ZM10.0003 12.5C10.1651 12.5 10.3263 12.4511 10.4633 12.3595C10.6003 12.268 10.7072 12.1378 10.7702 11.9855C10.8333 11.8333 10.8498 11.6657 10.8176 11.5041C10.7855 11.3424 10.7061 11.1939 10.5896 11.0774C10.473 10.9608 10.3246 10.8815 10.1629 10.8493C10.0013 10.8172 9.83369 10.8337 9.68142 10.8967C9.52915 10.9598 9.399 11.0666 9.30743 11.2037C9.21587 11.3407 9.16699 11.5018 9.16699 11.6666C9.16699 11.8877 9.25479 12.0996 9.41107 12.2559C9.56735 12.4122 9.77931 12.5 10.0003 12.5ZM15.8337 2.49998H15.0003V1.66665C15.0003 1.44563 14.9125 1.23367 14.7562 1.07739C14.6 0.92111 14.388 0.833313 14.167 0.833313C13.946 0.833313 13.734 0.92111 13.5777 1.07739C13.4215 1.23367 13.3337 1.44563 13.3337 1.66665V2.49998H6.66699V1.66665C6.66699 1.44563 6.5792 1.23367 6.42291 1.07739C6.26663 0.92111 6.05467 0.833313 5.83366 0.833313C5.61265 0.833313 5.40068 0.92111 5.2444 1.07739C5.08812 1.23367 5.00033 1.44563 5.00033 1.66665V2.49998H4.16699C3.50395 2.49998 2.86807 2.76337 2.39923 3.23221C1.93038 3.70105 1.66699 4.33694 1.66699 4.99998V16.6666C1.66699 17.3297 1.93038 17.9656 2.39923 18.4344C2.86807 18.9033 3.50395 19.1666 4.16699 19.1666H15.8337C16.4967 19.1666 17.1326 18.9033 17.6014 18.4344C18.0703 17.9656 18.3337 17.3297 18.3337 16.6666V4.99998C18.3337 4.33694 18.0703 3.70105 17.6014 3.23221C17.1326 2.76337 16.4967 2.49998 15.8337 2.49998ZM16.667 16.6666C16.667 16.8877 16.5792 17.0996 16.4229 17.2559C16.2666 17.4122 16.0547 17.5 15.8337 17.5H4.16699C3.94598 17.5 3.73402 17.4122 3.57774 17.2559C3.42146 17.0996 3.33366 16.8877 3.33366 16.6666V9.16665H16.667V16.6666ZM16.667 7.49998H3.33366V4.99998C3.33366 4.77897 3.42146 4.567 3.57774 4.41072C3.73402 4.25444 3.94598 4.16665 4.16699 4.16665H5.00033V4.99998C5.00033 5.22099 5.08812 5.43295 5.2444 5.58923C5.40068 5.74551 5.61265 5.83331 5.83366 5.83331C6.05467 5.83331 6.26663 5.74551 6.42291 5.58923C6.5792 5.43295 6.66699 5.22099 6.66699 4.99998V4.16665H13.3337V4.99998C13.3337 5.22099 13.4215 5.43295 13.5777 5.58923C13.734 5.74551 13.946 5.83331 14.167 5.83331C14.388 5.83331 14.6 5.74551 14.7562 5.58923C14.9125 5.43295 15.0003 5.22099 15.0003 4.99998V4.16665H15.8337C16.0547 4.16665 16.2666 4.25444 16.4229 4.41072C16.5792 4.567 16.667 4.77897 16.667 4.99998V7.49998ZM5.83366 12.5C5.99848 12.5 6.15959 12.4511 6.29663 12.3595C6.43368 12.268 6.54049 12.1378 6.60356 11.9855C6.66663 11.8333 6.68313 11.6657 6.65098 11.5041C6.61883 11.3424 6.53946 11.1939 6.42291 11.0774C6.30637 10.9608 6.15789 10.8815 5.99623 10.8493C5.83458 10.8172 5.66703 10.8337 5.51476 10.8967C5.36248 10.9598 5.23234 11.0666 5.14077 11.2037C5.0492 11.3407 5.00033 11.5018 5.00033 11.6666C5.00033 11.8877 5.08812 12.0996 5.2444 12.2559C5.40068 12.4122 5.61265 12.5 5.83366 12.5ZM5.83366 15.8333C5.99848 15.8333 6.15959 15.7844 6.29663 15.6929C6.43368 15.6013 6.54049 15.4712 6.60356 15.3189C6.66663 15.1666 6.68313 14.9991 6.65098 14.8374C6.61883 14.6758 6.53946 14.5273 6.42291 14.4107C6.30637 14.2942 6.15789 14.2148 5.99623 14.1827C5.83458 14.1505 5.66703 14.167 5.51476 14.2301C5.36248 14.2932 5.23234 14.4 5.14077 14.537C5.0492 14.674 5.00033 14.8352 5.00033 15C5.00033 15.221 5.08812 15.433 5.2444 15.5892C5.40068 15.7455 5.61265 15.8333 5.83366 15.8333Z" fill="#0054A4"/>
<path d="M10.0003 15.8333C10.1651 15.8333 10.3263 15.7844 10.4633 15.6929C10.6003 15.6013 10.7072 15.4712 10.7702 15.3189C10.8333 15.1666 10.8498 14.9991 10.8176 14.8374C10.7855 14.6758 10.7061 14.5273 10.5896 14.4107C10.473 14.2942 10.3246 14.2148 10.1629 14.1827C10.0013 14.1505 9.83369 14.167 9.68142 14.2301C9.52915 14.2932 9.399 14.4 9.30743 14.537C9.21587 14.674 9.16699 14.8352 9.16699 15C9.16699 15.221 9.25479 15.433 9.41107 15.5892C9.56735 15.7455 9.77931 15.8333 10.0003 15.8333ZM14.167 15.8333C14.3318 15.8333 14.4929 15.7844 14.63 15.6929C14.767 15.6013 14.8738 15.4712 14.9369 15.3189C15 15.1666 15.0165 14.9991 14.9843 14.8374C14.9522 14.6758 14.8728 14.5273 14.7562 14.4107C14.6397 14.2942 14.4912 14.2148 14.3296 14.1827C14.1679 14.1505 14.0004 14.167 13.8481 14.2301C13.6958 14.2932 13.5657 14.4 13.4741 14.537C13.3825 14.674 13.3337 14.8352 13.3337 15C13.3337 15.221 13.4215 15.433 13.5777 15.5892C13.734 15.7455 13.946 15.8333 14.167 15.8333ZM14.167 12.5C14.3318 12.5 14.4929 12.4511 14.63 12.3595C14.767 12.268 14.8738 12.1378 14.9369 11.9855C15 11.8333 15.0165 11.6657 14.9843 11.5041C14.9522 11.3424 14.8728 11.1939 14.7562 11.0774C14.6397 10.9608 14.4912 10.8815 14.3296 10.8493C14.1679 10.8172 14.0004 10.8337 13.8481 10.8967C13.6958 10.9598 13.5657 11.0666 13.4741 11.2037C13.3825 11.3407 13.3337 11.5018 13.3337 11.6666C13.3337 11.8877 13.4215 12.0996 13.5777 12.2559C13.734 12.4122 13.946 12.5 14.167 12.5ZM10.0003 12.5C10.1651 12.5 10.3263 12.4511 10.4633 12.3595C10.6003 12.268 10.7072 12.1378 10.7702 11.9855C10.8333 11.8333 10.8498 11.6657 10.8176 11.5041C10.7855 11.3424 10.7061 11.1939 10.5896 11.0774C10.473 10.9608 10.3246 10.8815 10.1629 10.8493C10.0013 10.8172 9.83369 10.8337 9.68142 10.8967C9.52915 10.9598 9.399 11.0666 9.30743 11.2037C9.21587 11.3407 9.16699 11.5018 9.16699 11.6666C9.16699 11.8877 9.25479 12.0996 9.41107 12.2559C9.56735 12.4122 9.77931 12.5 10.0003 12.5ZM15.8337 2.49998H15.0003V1.66665C15.0003 1.44563 14.9125 1.23367 14.7562 1.07739C14.6 0.92111 14.388 0.833313 14.167 0.833313C13.946 0.833313 13.734 0.92111 13.5777 1.07739C13.4215 1.23367 13.3337 1.44563 13.3337 1.66665V2.49998H6.66699V1.66665C6.66699 1.44563 6.5792 1.23367 6.42291 1.07739C6.26663 0.92111 6.05467 0.833313 5.83366 0.833313C5.61265 0.833313 5.40068 0.92111 5.2444 1.07739C5.08812 1.23367 5.00033 1.44563 5.00033 1.66665V2.49998H4.16699C3.50395 2.49998 2.86807 2.76337 2.39923 3.23221C1.93038 3.70105 1.66699 4.33694 1.66699 4.99998V16.6666C1.66699 17.3297 1.93038 17.9656 2.39923 18.4344C2.86807 18.9033 3.50395 19.1666 4.16699 19.1666H15.8337C16.4967 19.1666 17.1326 18.9033 17.6014 18.4344C18.0703 17.9656 18.3337 17.3297 18.3337 16.6666V4.99998C18.3337 4.33694 18.0703 3.70105 17.6014 3.23221C17.1326 2.76337 16.4967 2.49998 15.8337 2.49998ZM16.667 16.6666C16.667 16.8877 16.5792 17.0996 16.4229 17.2559C16.2666 17.4122 16.0547 17.5 15.8337 17.5H4.16699C3.94598 17.5 3.73402 17.4122 3.57774 17.2559C3.42146 17.0996 3.33366 16.8877 3.33366 16.6666V9.16665H16.667V16.6666ZM16.667 7.49998H3.33366V4.99998C3.33366 4.77897 3.42146 4.567 3.57774 4.41072C3.73402 4.25444 3.94598 4.16665 4.16699 4.16665H5.00033V4.99998C5.00033 5.22099 5.08812 5.43295 5.2444 5.58923C5.40068 5.74551 5.61265 5.83331 5.83366 5.83331C6.05467 5.83331 6.26663 5.74551 6.42291 5.58923C6.5792 5.43295 6.66699 5.22099 6.66699 4.99998V4.16665H13.3337V4.99998C13.3337 5.22099 13.4215 5.43295 13.5777 5.58923C13.734 5.74551 13.946 5.83331 14.167 5.83331C14.388 5.83331 14.6 5.74551 14.7562 5.58923C14.9125 5.43295 15.0003 5.22099 15.0003 4.99998V4.16665H15.8337C16.0547 4.16665 16.2666 4.25444 16.4229 4.41072C16.5792 4.567 16.667 4.77897 16.667 4.99998V7.49998ZM5.83366 12.5C5.99848 12.5 6.15959 12.4511 6.29663 12.3595C6.43368 12.268 6.54049 12.1378 6.60356 11.9855C6.66663 11.8333 6.68313 11.6657 6.65098 11.5041C6.61883 11.3424 6.53946 11.1939 6.42291 11.0774C6.30637 10.9608 6.15789 10.8815 5.99623 10.8493C5.83458 10.8172 5.66703 10.8337 5.51476 10.8967C5.36248 10.9598 5.23234 11.0666 5.14077 11.2037C5.0492 11.3407 5.00033 11.5018 5.00033 11.6666C5.00033 11.8877 5.08812 12.0996 5.2444 12.2559C5.40068 12.4122 5.61265 12.5 5.83366 12.5ZM5.83366 15.8333C5.99848 15.8333 6.15959 15.7844 6.29663 15.6929C6.43368 15.6013 6.54049 15.4712 6.60356 15.3189C6.66663 15.1666 6.68313 14.9991 6.65098 14.8374C6.61883 14.6758 6.53946 14.5273 6.42291 14.4107C6.30637 14.2942 6.15789 14.2148 5.99623 14.1827C5.83458 14.1505 5.66703 14.167 5.51476 14.2301C5.36248 14.2932 5.23234 14.4 5.14077 14.537C5.0492 14.674 5.00033 14.8352 5.00033 15C5.00033 15.221 5.08812 15.433 5.2444 15.5892C5.40068 15.7455 5.61265 15.8333 5.83366 15.8333Z" fill="black" fill-opacity="0.8"/>
<path d="M10.0003 15.8333C10.1651 15.8333 10.3263 15.7844 10.4633 15.6929C10.6003 15.6013 10.7072 15.4712 10.7702 15.3189C10.8333 15.1666 10.8498 14.9991 10.8176 14.8374C10.7855 14.6758 10.7061 14.5273 10.5896 14.4107C10.473 14.2942 10.3246 14.2148 10.1629 14.1827C10.0013 14.1505 9.83369 14.167 9.68142 14.2301C9.52915 14.2932 9.399 14.4 9.30743 14.537C9.21587 14.674 9.16699 14.8352 9.16699 15C9.16699 15.221 9.25479 15.433 9.41107 15.5892C9.56735 15.7455 9.77931 15.8333 10.0003 15.8333ZM14.167 15.8333C14.3318 15.8333 14.4929 15.7844 14.63 15.6929C14.767 15.6013 14.8738 15.4712 14.9369 15.3189C15 15.1666 15.0165 14.9991 14.9843 14.8374C14.9522 14.6758 14.8728 14.5273 14.7562 14.4107C14.6397 14.2942 14.4912 14.2148 14.3296 14.1827C14.1679 14.1505 14.0004 14.167 13.8481 14.2301C13.6958 14.2932 13.5657 14.4 13.4741 14.537C13.3825 14.674 13.3337 14.8352 13.3337 15C13.3337 15.221 13.4215 15.433 13.5777 15.5892C13.734 15.7455 13.946 15.8333 14.167 15.8333ZM14.167 12.5C14.3318 12.5 14.4929 12.4511 14.63 12.3595C14.767 12.268 14.8738 12.1378 14.9369 11.9855C15 11.8333 15.0165 11.6657 14.9843 11.5041C14.9522 11.3424 14.8728 11.1939 14.7562 11.0774C14.6397 10.9608 14.4912 10.8815 14.3296 10.8493C14.1679 10.8172 14.0004 10.8337 13.8481 10.8967C13.6958 10.9598 13.5657 11.0666 13.4741 11.2037C13.3825 11.3407 13.3337 11.5018 13.3337 11.6666C13.3337 11.8877 13.4215 12.0996 13.5777 12.2559C13.734 12.4122 13.946 12.5 14.167 12.5ZM10.0003 12.5C10.1651 12.5 10.3263 12.4511 10.4633 12.3595C10.6003 12.268 10.7072 12.1378 10.7702 11.9855C10.8333 11.8333 10.8498 11.6657 10.8176 11.5041C10.7855 11.3424 10.7061 11.1939 10.5896 11.0774C10.473 10.9608 10.3246 10.8815 10.1629 10.8493C10.0013 10.8172 9.83369 10.8337 9.68142 10.8967C9.52915 10.9598 9.399 11.0666 9.30743 11.2037C9.21587 11.3407 9.16699 11.5018 9.16699 11.6666C9.16699 11.8877 9.25479 12.0996 9.41107 12.2559C9.56735 12.4122 9.77931 12.5 10.0003 12.5ZM15.8337 2.49998H15.0003V1.66665C15.0003 1.44563 14.9125 1.23367 14.7562 1.07739C14.6 0.92111 14.388 0.833313 14.167 0.833313C13.946 0.833313 13.734 0.92111 13.5777 1.07739C13.4215 1.23367 13.3337 1.44563 13.3337 1.66665V2.49998H6.66699V1.66665C6.66699 1.44563 6.5792 1.23367 6.42291 1.07739C6.26663 0.92111 6.05467 0.833313 5.83366 0.833313C5.61265 0.833313 5.40068 0.92111 5.2444 1.07739C5.08812 1.23367 5.00033 1.44563 5.00033 1.66665V2.49998H4.16699C3.50395 2.49998 2.86807 2.76337 2.39923 3.23221C1.93038 3.70105 1.66699 4.33694 1.66699 4.99998V16.6666C1.66699 17.3297 1.93038 17.9656 2.39923 18.4344C2.86807 18.9033 3.50395 19.1666 4.16699 19.1666H15.8337C16.4967 19.1666 17.1326 18.9033 17.6014 18.4344C18.0703 17.9656 18.3337 17.3297 18.3337 16.6666V4.99998C18.3337 4.33694 18.0703 3.70105 17.6014 3.23221C17.1326 2.76337 16.4967 2.49998 15.8337 2.49998ZM16.667 16.6666C16.667 16.8877 16.5792 17.0996 16.4229 17.2559C16.2666 17.4122 16.0547 17.5 15.8337 17.5H4.16699C3.94598 17.5 3.73402 17.4122 3.57774 17.2559C3.42146 17.0996 3.33366 16.8877 3.33366 16.6666V9.16665H16.667V16.6666ZM16.667 7.49998H3.33366V4.99998C3.33366 4.77897 3.42146 4.567 3.57774 4.41072C3.73402 4.25444 3.94598 4.16665 4.16699 4.16665H5.00033V4.99998C5.00033 5.22099 5.08812 5.43295 5.2444 5.58923C5.40068 5.74551 5.61265 5.83331 5.83366 5.83331C6.05467 5.83331 6.26663 5.74551 6.42291 5.58923C6.5792 5.43295 6.66699 5.22099 6.66699 4.99998V4.16665H13.3337V4.99998C13.3337 5.22099 13.4215 5.43295 13.5777 5.58923C13.734 5.74551 13.946 5.83331 14.167 5.83331C14.388 5.83331 14.6 5.74551 14.7562 5.58923C14.9125 5.43295 15.0003 5.22099 15.0003 4.99998V4.16665H15.8337C16.0547 4.16665 16.2666 4.25444 16.4229 4.41072C16.5792 4.567 16.667 4.77897 16.667 4.99998V7.49998ZM5.83366 12.5C5.99848 12.5 6.15959 12.4511 6.29663 12.3595C6.43368 12.268 6.54049 12.1378 6.60356 11.9855C6.66663 11.8333 6.68313 11.6657 6.65098 11.5041C6.61883 11.3424 6.53946 11.1939 6.42291 11.0774C6.30637 10.9608 6.15789 10.8815 5.99623 10.8493C5.83458 10.8172 5.66703 10.8337 5.51476 10.8967C5.36248 10.9598 5.23234 11.0666 5.14077 11.2037C5.0492 11.3407 5.00033 11.5018 5.00033 11.6666C5.00033 11.8877 5.08812 12.0996 5.2444 12.2559C5.40068 12.4122 5.61265 12.5 5.83366 12.5ZM5.83366 15.8333C5.99848 15.8333 6.15959 15.7844 6.29663 15.6929C6.43368 15.6013 6.54049 15.4712 6.60356 15.3189C6.66663 15.1666 6.68313 14.9991 6.65098 14.8374C6.61883 14.6758 6.53946 14.5273 6.42291 14.4107C6.30637 14.2942 6.15789 14.2148 5.99623 14.1827C5.83458 14.1505 5.66703 14.167 5.51476 14.2301C5.36248 14.2932 5.23234 14.4 5.14077 14.537C5.0492 14.674 5.00033 14.8352 5.00033 15C5.00033 15.221 5.08812 15.433 5.2444 15.5892C5.40068 15.7455 5.61265 15.8333 5.83366 15.8333Z" fill="white" fill-opacity="0.2"/>
</g>
<defs>
<clipPath id="clip0_12150_1137">
<rect width="20" height="20" fill="white"/>
</clipPath>
</defs>
</svg>
