<svg width="32" height="32" viewBox="0 0 32 32" fill="none"
     xmlns="http://www.w3.org/2000/svg">
    <circle cx="16" cy="16" r="15.5" stroke="#fff"/>
    <g clip-path="url(#clip0_11423_40279)">
        <path d="M22.6667 11.8667C22.1656 12.0841 21.6357 12.2278 21.0934 12.2933C21.6655 11.9515 22.0942 11.4139 22.3 10.78C21.7624 11.1 21.1739 11.3255 20.56 11.4467C20.1497 11.0017 19.6034 10.7055 19.0066 10.6046C18.4098 10.5036 17.7964 10.6036 17.2626 10.8888C16.7287 11.174 16.3047 11.6284 16.0569 12.1806C15.8091 12.7328 15.7516 13.3516 15.8934 13.94C14.8063 13.885 13.743 13.602 12.7725 13.1092C11.802 12.6165 10.9459 11.9251 10.26 11.08C10.0195 11.5001 9.89305 11.9759 9.89337 12.46C9.89252 12.9096 10.0029 13.3524 10.2145 13.749C10.4262 14.1457 10.7327 14.4838 11.1067 14.7333C10.672 14.7215 10.2466 14.6049 9.86671 14.3933V14.4267C9.86997 15.0566 10.0907 15.6661 10.4916 16.152C10.8925 16.6379 11.4489 16.9704 12.0667 17.0933C11.8289 17.1657 11.582 17.2039 11.3334 17.2067C11.1613 17.2047 10.9897 17.1891 10.82 17.16C10.996 17.7019 11.3365 18.1754 11.7941 18.5148C12.2517 18.8541 12.8038 19.0424 13.3734 19.0533C12.4115 19.8102 11.224 20.2232 10 20.2267C9.7772 20.2274 9.55453 20.214 9.33337 20.1867C10.583 20.9935 12.0392 21.4218 13.5267 21.42C14.5532 21.4307 15.5715 21.2367 16.5221 20.8494C17.4728 20.4621 18.3367 19.8893 19.0635 19.1643C19.7903 18.4394 20.3654 17.5769 20.7551 16.6273C21.1448 15.6776 21.3414 14.6598 21.3334 13.6333C21.3334 13.52 21.3334 13.4 21.3334 13.28C21.8565 12.8899 22.3077 12.4116 22.6667 11.8667Z"
              fill="#fff"/>
    </g>
    <defs>
        <clipPath id="clip0_11423_40279">
            <rect width="16" height="16" fill="white"
                  transform="translate(8 8)"/>
        </clipPath>
    </defs>
</svg>
