<svg width="32" height="32" viewBox="0 0 32 32" fill="none"
     xmlns="http://www.w3.org/2000/svg">
    <circle cx="16" cy="16" r="15.5" stroke="#fff"/>
    <g clip-path="url(#clip0_11423_40284)">
        <path
                d="M21.6464 9.33333H10.353C10.2261 9.33157 10.1 9.35483 9.98209 9.40179C9.86413 9.44874 9.75658 9.51848 9.66558 9.607C9.57457 9.69553 9.5019 9.80112 9.45171 9.91774C9.40152 10.0344 9.37479 10.1597 9.37305 10.2867V21.7133C9.37479 21.8403 9.40152 21.9656 9.45171 22.0823C9.5019 22.1989 9.57457 22.3045 9.66558 22.393C9.75658 22.4815 9.86413 22.5512 9.98209 22.5982C10.1 22.6452 10.2261 22.6684 10.353 22.6667H21.6464C21.7733 22.6684 21.8994 22.6452 22.0173 22.5982C22.1353 22.5512 22.2428 22.4815 22.3338 22.393C22.4249 22.3045 22.4975 22.1989 22.5477 22.0823C22.5979 21.9656 22.6246 21.8403 22.6264 21.7133V10.2867C22.6246 10.1597 22.5979 10.0344 22.5477 9.91774C22.4975 9.80112 22.4249 9.69553 22.3338 9.607C22.2428 9.51848 22.1353 9.44874 22.0173 9.40179C21.8994 9.35483 21.7733 9.33157 21.6464 9.33333ZM13.393 20.4933H11.393V14.4933H13.393V20.4933ZM12.393 13.6533C12.1172 13.6533 11.8527 13.5438 11.6577 13.3487C11.4626 13.1537 11.353 12.8892 11.353 12.6133C11.353 12.3375 11.4626 12.073 11.6577 11.8779C11.8527 11.6829 12.1172 11.5733 12.393 11.5733C12.5395 11.5567 12.6878 11.5712 12.8283 11.6159C12.9688 11.6606 13.0982 11.7345 13.2082 11.8326C13.3181 11.9308 13.4061 12.0511 13.4663 12.1857C13.5265 12.3202 13.5577 12.4659 13.5577 12.6133C13.5577 12.7607 13.5265 12.9065 13.4663 13.041C13.4061 13.1755 13.3181 13.2958 13.2082 13.394C13.0982 13.4922 12.9688 13.5661 12.8283 13.6107C12.6878 13.6554 12.5395 13.6699 12.393 13.6533ZM20.6064 20.4933H18.6064V17.2733C18.6064 16.4667 18.3197 15.94 17.593 15.94C17.3682 15.9416 17.1492 16.0122 16.9656 16.1421C16.782 16.272 16.6427 16.4551 16.5664 16.6667C16.5142 16.8234 16.4916 16.9884 16.4997 17.1533V20.4867H14.4997C14.4997 20.4867 14.4997 15.0333 14.4997 14.4867H16.4997V15.3333C16.6814 15.0181 16.9457 14.7583 17.264 14.5821C17.5824 14.4059 17.9428 14.3199 18.3064 14.3333C19.6397 14.3333 20.6064 15.1933 20.6064 17.04V20.4933Z"
                fill="#fff"/>
    </g>
    <defs>
        <clipPath id="clip0_11423_40284">
            <rect width="16" height="16" fill="white"
                  transform="translate(8 8)"/>
        </clipPath>
    </defs>
</svg>
