<svg width="20" height="20" viewBox="0 0 20 20" fill="none" xmlns="http://www.w3.org/2000/svg">
<g clip-path="url(#clip0_12860_10670)">
<path d="M15.5053 13.0115C15.298 13.2177 15.0175 13.3334 14.7251 13.3334C14.4327 13.3334 14.1522 13.2177 13.9448 13.0115L9.97168 9.09373L6.05387 13.0115C5.84651 13.2177 5.56601 13.3334 5.27363 13.3334C4.98124 13.3334 4.70074 13.2177 4.49338 13.0115C4.38965 12.9087 4.30732 12.7863 4.25113 12.6514C4.19494 12.5165 4.16602 12.3719 4.16602 12.2258C4.16602 12.0797 4.19494 11.935 4.25113 11.8001C4.30732 11.6653 4.38965 11.5429 4.49338 11.44L9.1859 6.74747C9.28879 6.64374 9.41119 6.56141 9.54606 6.50522C9.68092 6.44903 9.82558 6.42011 9.97168 6.42011C10.1178 6.42011 10.2624 6.44903 10.3973 6.50522C10.5322 6.56141 10.6546 6.64374 10.7575 6.74747L15.5053 11.44C15.609 11.5429 15.6914 11.6653 15.7476 11.8001C15.8038 11.935 15.8327 12.0797 15.8327 12.2258C15.8327 12.3719 15.8038 12.5165 15.7476 12.6514C15.6914 12.7863 15.609 12.9087 15.5053 13.0115Z" fill="#0054A4"/>
<path d="M15.5053 13.0115C15.298 13.2177 15.0175 13.3334 14.7251 13.3334C14.4327 13.3334 14.1522 13.2177 13.9448 13.0115L9.97168 9.09373L6.05387 13.0115C5.84651 13.2177 5.56601 13.3334 5.27363 13.3334C4.98124 13.3334 4.70074 13.2177 4.49338 13.0115C4.38965 12.9087 4.30732 12.7863 4.25113 12.6514C4.19494 12.5165 4.16602 12.3719 4.16602 12.2258C4.16602 12.0797 4.19494 11.935 4.25113 11.8001C4.30732 11.6653 4.38965 11.5429 4.49338 11.44L9.1859 6.74747C9.28879 6.64374 9.41119 6.56141 9.54606 6.50522C9.68092 6.44903 9.82558 6.42011 9.97168 6.42011C10.1178 6.42011 10.2624 6.44903 10.3973 6.50522C10.5322 6.56141 10.6546 6.64374 10.7575 6.74747L15.5053 11.44C15.609 11.5429 15.6914 11.6653 15.7476 11.8001C15.8038 11.935 15.8327 12.0797 15.8327 12.2258C15.8327 12.3719 15.8038 12.5165 15.7476 12.6514C15.6914 12.7863 15.609 12.9087 15.5053 13.0115Z" fill="black" fill-opacity="0.6"/>
</g>
<defs>
<clipPath id="clip0_12860_10670">
<rect width="20" height="20" fill="white"/>
</clipPath>
</defs>
</svg>
