<svg width="14" height="15" viewBox="0 0 14 15" fill="none" xmlns="http://www.w3.org/2000/svg">
<path d="M10.828 9.03639L8.16704 7.50001L10.828 5.96363C10.962 5.88624 11.0597 5.75882 11.0997 5.6094C11.1397 5.45998 11.1187 5.30079 11.0414 5.16683C10.9641 5.03286 10.8367 4.93509 10.6873 4.895C10.5379 4.85491 10.3787 4.87579 10.2447 4.95305L7.58353 6.48954V3.41668C7.58353 3.26197 7.52207 3.11359 7.41267 3.0042C7.30328 2.8948 7.15491 2.83334 7.0002 2.83334C6.84549 2.83334 6.69711 2.8948 6.58772 3.0042C6.47832 3.11359 6.41686 3.26197 6.41686 3.41668V6.48954L3.7557 4.95304C3.62169 4.87578 3.46249 4.85489 3.31309 4.89498C3.16369 4.93507 3.03633 5.03284 2.959 5.16681C2.88167 5.30078 2.86071 5.45997 2.90072 5.60939C2.94073 5.7588 3.03844 5.88622 3.17236 5.96362L5.83335 7.50001L3.17236 9.03639C3.03844 9.11379 2.94073 9.2412 2.90072 9.39062C2.86071 9.54004 2.88167 9.69923 2.959 9.83319C3.03633 9.96716 3.16369 10.0649 3.31309 10.105C3.46249 10.1451 3.62169 10.1242 3.7557 10.047L6.41686 8.51048V11.5833C6.41686 11.7381 6.47832 11.8864 6.58772 11.9958C6.69711 12.1052 6.84549 12.1667 7.0002 12.1667C7.15491 12.1667 7.30328 12.1052 7.41267 11.9958C7.52207 11.8864 7.58353 11.7381 7.58353 11.5833V8.51048L10.2447 10.047C10.3787 10.1242 10.5379 10.1451 10.6873 10.105C10.8367 10.065 10.9641 9.96718 11.0414 9.83321C11.1187 9.69925 11.1397 9.54005 11.0997 9.39064C11.0597 9.24122 10.962 9.1138 10.828 9.03641V9.03639Z" fill="#CE3836"/>
</svg>
