<svg width="20" height="21" viewBox="0 0 20 21" fill="none" xmlns="http://www.w3.org/2000/svg">
<g clip-path="url(#clip0_11423_18709)">
<path d="M9.99996 11.9292C10.1648 11.9292 10.3259 11.8803 10.4629 11.7888C10.6 11.6972 10.7068 11.567 10.7699 11.4148C10.8329 11.2625 10.8494 11.0949 10.8173 10.9333C10.7851 10.7716 10.7058 10.6232 10.5892 10.5066C10.4727 10.3901 10.3242 10.3107 10.1625 10.2785C10.0009 10.2464 9.83333 10.2629 9.68106 10.326C9.52878 10.389 9.39864 10.4958 9.30707 10.6329C9.2155 10.7699 9.16663 10.931 9.16663 11.0959C9.16663 11.3169 9.25442 11.5288 9.4107 11.6851C9.56698 11.8414 9.77895 11.9292 9.99996 11.9292ZM14.1666 11.9292C14.3314 11.9292 14.4926 11.8803 14.6296 11.7888C14.7666 11.6972 14.8735 11.567 14.9365 11.4148C14.9996 11.2625 15.0161 11.0949 14.9839 10.9333C14.9518 10.7716 14.8724 10.6232 14.7559 10.5066C14.6393 10.3901 14.4909 10.3107 14.3292 10.2785C14.1676 10.2464 14 10.2629 13.8477 10.326C13.6955 10.389 13.5653 10.4958 13.4737 10.6329C13.3822 10.7699 13.3333 10.931 13.3333 11.0959C13.3333 11.3169 13.4211 11.5288 13.5774 11.6851C13.7337 11.8414 13.9456 11.9292 14.1666 11.9292ZM9.99996 15.2625C10.1648 15.2625 10.3259 15.2137 10.4629 15.1221C10.6 15.0305 10.7068 14.9004 10.7699 14.7481C10.8329 14.5958 10.8494 14.4283 10.8173 14.2666C10.7851 14.105 10.7058 13.9565 10.5892 13.8399C10.4727 13.7234 10.3242 13.644 10.1625 13.6119C10.0009 13.5797 9.83333 13.5962 9.68106 13.6593C9.52878 13.7224 9.39864 13.8292 9.30707 13.9662C9.2155 14.1033 9.16663 14.2644 9.16663 14.4292C9.16663 14.6502 9.25442 14.8622 9.4107 15.0185C9.56698 15.1747 9.77895 15.2625 9.99996 15.2625ZM14.1666 15.2625C14.3314 15.2625 14.4926 15.2137 14.6296 15.1221C14.7666 15.0305 14.8735 14.9004 14.9365 14.7481C14.9996 14.5958 15.0161 14.4283 14.9839 14.2666C14.9518 14.105 14.8724 13.9565 14.7559 13.8399C14.6393 13.7234 14.4909 13.644 14.3292 13.6119C14.1676 13.5797 14 13.5962 13.8477 13.6593C13.6955 13.7224 13.5653 13.8292 13.4737 13.9662C13.3822 14.1033 13.3333 14.2644 13.3333 14.4292C13.3333 14.6502 13.4211 14.8622 13.5774 15.0185C13.7337 15.1747 13.9456 15.2625 14.1666 15.2625ZM5.83329 11.9292C5.99811 11.9292 6.15923 11.8803 6.29627 11.7888C6.43331 11.6972 6.54012 11.567 6.60319 11.4148C6.66627 11.2625 6.68277 11.0949 6.65061 10.9333C6.61846 10.7716 6.53909 10.6232 6.42255 10.5066C6.306 10.3901 6.15752 10.3107 5.99587 10.2785C5.83422 10.2464 5.66666 10.2629 5.51439 10.326C5.36212 10.389 5.23197 10.4958 5.1404 10.6329C5.04883 10.7699 4.99996 10.931 4.99996 11.0959C4.99996 11.3169 5.08776 11.5288 5.24404 11.6851C5.40032 11.8414 5.61228 11.9292 5.83329 11.9292ZM15.8333 3.59587H15V2.76253C15 2.54152 14.9122 2.32956 14.7559 2.17328C14.5996 2.017 14.3876 1.9292 14.1666 1.9292C13.9456 1.9292 13.7337 2.017 13.5774 2.17328C13.4211 2.32956 13.3333 2.54152 13.3333 2.76253V3.59587H6.66663V2.76253C6.66663 2.54152 6.57883 2.32956 6.42255 2.17328C6.26627 2.017 6.05431 1.9292 5.83329 1.9292C5.61228 1.9292 5.40032 2.017 5.24404 2.17328C5.08776 2.32956 4.99996 2.54152 4.99996 2.76253V3.59587H4.16663C3.50358 3.59587 2.8677 3.85926 2.39886 4.3281C1.93002 4.79694 1.66663 5.43282 1.66663 6.09587V16.0959C1.66663 16.7589 1.93002 17.3948 2.39886 17.8636C2.8677 18.3325 3.50358 18.5959 4.16663 18.5959H15.8333C16.4963 18.5959 17.1322 18.3325 17.6011 17.8636C18.0699 17.3948 18.3333 16.7589 18.3333 16.0959V6.09587C18.3333 5.43282 18.0699 4.79694 17.6011 4.3281C17.1322 3.85926 16.4963 3.59587 15.8333 3.59587ZM16.6666 16.0959C16.6666 16.3169 16.5788 16.5288 16.4225 16.6851C16.2663 16.8414 16.0543 16.9292 15.8333 16.9292H4.16663C3.94561 16.9292 3.73365 16.8414 3.57737 16.6851C3.42109 16.5288 3.33329 16.3169 3.33329 16.0959V8.59587H16.6666V16.0959ZM16.6666 6.9292H3.33329V6.09587C3.33329 5.87485 3.42109 5.66289 3.57737 5.50661C3.73365 5.35033 3.94561 5.26253 4.16663 5.26253H15.8333C16.0543 5.26253 16.2663 5.35033 16.4225 5.50661C16.5788 5.66289 16.6666 5.87485 16.6666 6.09587V6.9292ZM5.83329 15.2625C5.99811 15.2625 6.15923 15.2137 6.29627 15.1221C6.43331 15.0305 6.54012 14.9004 6.60319 14.7481C6.66627 14.5958 6.68277 14.4283 6.65061 14.2666C6.61846 14.105 6.53909 13.9565 6.42255 13.8399C6.306 13.7234 6.15752 13.644 5.99587 13.6119C5.83422 13.5797 5.66666 13.5962 5.51439 13.6593C5.36212 13.7224 5.23197 13.8292 5.1404 13.9662C5.04883 14.1033 4.99996 14.2644 4.99996 14.4292C4.99996 14.6502 5.08776 14.8622 5.24404 15.0185C5.40032 15.1747 5.61228 15.2625 5.83329 15.2625Z" fill="#018081"/>
</g>
<defs>
<clipPath id="clip0_11423_18709">
<rect width="20" height="20" fill="white" transform="translate(0 0.262695)"/>
</clipPath>
</defs>
</svg>
