<svg width="20" height="20" viewBox="0 0 20 20" fill="none" xmlns="http://www.w3.org/2000/svg">
<path d="M8.0915 9.17151L9.99983 9.16668C9.99983 9.16668 11.7333 9.16668 11.9082 9.16668C12.083 9.16668 12.083 9.16668 12.083 9.16668L12.4998 9.17151C12.4998 9.17151 12.7188 9.14973 12.8203 9.10742C12.9219 9.06511 13.014 9.00312 13.0915 8.92501C13.1696 8.84754 13.2316 8.75537 13.2739 8.65382C13.3162 8.55227 13.338 8.44335 13.338 8.33334C13.338 8.22333 13.3162 8.11441 13.2739 8.01286C13.2316 7.91131 13.1696 7.81915 13.0915 7.74168L10.5915 5.24168C10.514 5.16357 10.4219 5.10157 10.3203 5.05927C10.2188 5.01696 10.1098 4.99518 9.99983 4.99518C9.88982 4.99518 9.7809 5.01696 9.67935 5.05927C9.5778 5.10157 9.48563 5.16357 9.40816 5.24168L6.90816 7.74168C6.75124 7.8986 6.66309 8.11143 6.66309 8.33334C6.66309 8.55526 6.75124 8.76809 6.90816 8.92501C7.06508 9.08193 7.27791 9.17009 7.49983 9.17009C7.72175 9.17009 8.0915 9.17151 8.0915 9.17151ZM11.9082 11.6667H9.99983H8.0915C7.91634 11.6667 7.91634 11.6633 7.82004 11.6633C7.49967 11.6633 7.60971 11.6633 7.49983 11.6633C7.38995 11.6633 7.28114 11.6849 7.17962 11.727C7.0781 11.769 6.98586 11.8306 6.90816 11.9083C6.83046 11.986 6.76883 12.0783 6.72678 12.1798C6.68473 12.2813 6.66309 12.3901 6.66309 12.5C6.66309 12.6099 6.68473 12.7187 6.72678 12.8202C6.76883 12.9217 6.83046 13.014 6.90816 13.0917L9.40816 15.5917C9.48563 15.6698 9.5778 15.7318 9.67935 15.7741C9.7809 15.8164 9.88982 15.8382 9.99983 15.8382C10.1098 15.8382 10.2188 15.8164 10.3203 15.7741C10.4219 15.7318 10.514 15.6698 10.5915 15.5917L13.0915 13.0917C13.2484 12.9348 13.3366 12.7219 13.3366 12.5C13.3366 12.2781 13.2484 12.0653 13.0915 11.9083C12.9346 11.7514 12.7217 11.6633 12.4998 11.6633C12.2779 11.6633 12.083 11.6667 11.9082 11.6667Z" fill="#0054A4"/>
<path d="M8.0915 9.17151L9.99983 9.16668C9.99983 9.16668 11.7333 9.16668 11.9082 9.16668C12.083 9.16668 12.083 9.16668 12.083 9.16668L12.4998 9.17151C12.4998 9.17151 12.7188 9.14973 12.8203 9.10742C12.9219 9.06511 13.014 9.00312 13.0915 8.92501C13.1696 8.84754 13.2316 8.75537 13.2739 8.65382C13.3162 8.55227 13.338 8.44335 13.338 8.33334C13.338 8.22333 13.3162 8.11441 13.2739 8.01286C13.2316 7.91131 13.1696 7.81915 13.0915 7.74168L10.5915 5.24168C10.514 5.16357 10.4219 5.10157 10.3203 5.05927C10.2188 5.01696 10.1098 4.99518 9.99983 4.99518C9.88982 4.99518 9.7809 5.01696 9.67935 5.05927C9.5778 5.10157 9.48563 5.16357 9.40816 5.24168L6.90816 7.74168C6.75124 7.8986 6.66309 8.11143 6.66309 8.33334C6.66309 8.55526 6.75124 8.76809 6.90816 8.92501C7.06508 9.08193 7.27791 9.17009 7.49983 9.17009C7.72175 9.17009 8.0915 9.17151 8.0915 9.17151ZM11.9082 11.6667H9.99983H8.0915C7.91634 11.6667 7.91634 11.6633 7.82004 11.6633C7.49967 11.6633 7.60971 11.6633 7.49983 11.6633C7.38995 11.6633 7.28114 11.6849 7.17962 11.727C7.0781 11.769 6.98586 11.8306 6.90816 11.9083C6.83046 11.986 6.76883 12.0783 6.72678 12.1798C6.68473 12.2813 6.66309 12.3901 6.66309 12.5C6.66309 12.6099 6.68473 12.7187 6.72678 12.8202C6.76883 12.9217 6.83046 13.014 6.90816 13.0917L9.40816 15.5917C9.48563 15.6698 9.5778 15.7318 9.67935 15.7741C9.7809 15.8164 9.88982 15.8382 9.99983 15.8382C10.1098 15.8382 10.2188 15.8164 10.3203 15.7741C10.4219 15.7318 10.514 15.6698 10.5915 15.5917L13.0915 13.0917C13.2484 12.9348 13.3366 12.7219 13.3366 12.5C13.3366 12.2781 13.2484 12.0653 13.0915 11.9083C12.9346 11.7514 12.7217 11.6633 12.4998 11.6633C12.2779 11.6633 12.083 11.6667 11.9082 11.6667Z" fill="black" fill-opacity="0.8"/>
<path d="M8.0915 9.17151L9.99983 9.16668C9.99983 9.16668 11.7333 9.16668 11.9082 9.16668C12.083 9.16668 12.083 9.16668 12.083 9.16668L12.4998 9.17151C12.4998 9.17151 12.7188 9.14973 12.8203 9.10742C12.9219 9.06511 13.014 9.00312 13.0915 8.92501C13.1696 8.84754 13.2316 8.75537 13.2739 8.65382C13.3162 8.55227 13.338 8.44335 13.338 8.33334C13.338 8.22333 13.3162 8.11441 13.2739 8.01286C13.2316 7.91131 13.1696 7.81915 13.0915 7.74168L10.5915 5.24168C10.514 5.16357 10.4219 5.10157 10.3203 5.05927C10.2188 5.01696 10.1098 4.99518 9.99983 4.99518C9.88982 4.99518 9.7809 5.01696 9.67935 5.05927C9.5778 5.10157 9.48563 5.16357 9.40816 5.24168L6.90816 7.74168C6.75124 7.8986 6.66309 8.11143 6.66309 8.33334C6.66309 8.55526 6.75124 8.76809 6.90816 8.92501C7.06508 9.08193 7.27791 9.17009 7.49983 9.17009C7.72175 9.17009 8.0915 9.17151 8.0915 9.17151ZM11.9082 11.6667H9.99983H8.0915C7.91634 11.6667 7.91634 11.6633 7.82004 11.6633C7.49967 11.6633 7.60971 11.6633 7.49983 11.6633C7.38995 11.6633 7.28114 11.6849 7.17962 11.727C7.0781 11.769 6.98586 11.8306 6.90816 11.9083C6.83046 11.986 6.76883 12.0783 6.72678 12.1798C6.68473 12.2813 6.66309 12.3901 6.66309 12.5C6.66309 12.6099 6.68473 12.7187 6.72678 12.8202C6.76883 12.9217 6.83046 13.014 6.90816 13.0917L9.40816 15.5917C9.48563 15.6698 9.5778 15.7318 9.67935 15.7741C9.7809 15.8164 9.88982 15.8382 9.99983 15.8382C10.1098 15.8382 10.2188 15.8164 10.3203 15.7741C10.4219 15.7318 10.514 15.6698 10.5915 15.5917L13.0915 13.0917C13.2484 12.9348 13.3366 12.7219 13.3366 12.5C13.3366 12.2781 13.2484 12.0653 13.0915 11.9083C12.9346 11.7514 12.7217 11.6633 12.4998 11.6633C12.2779 11.6633 12.083 11.6667 11.9082 11.6667Z" fill="white" fill-opacity="0.2"/>
</svg>
