<svg width="25" height="25" viewBox="0 0 25 25" fill="none" xmlns="http://www.w3.org/2000/svg">
<g clip-path="url(#clip0_11423_34486)">
<path d="M12.5 19.2627C12.6978 19.2627 12.8911 19.204 13.0556 19.0942C13.22 18.9843 13.3482 18.8281 13.4239 18.6454C13.4996 18.4627 13.5194 18.2616 13.4808 18.0676C13.4422 17.8736 13.347 17.6954 13.2071 17.5556C13.0673 17.4157 12.8891 17.3205 12.6951 17.2819C12.5011 17.2433 12.3 17.2631 12.1173 17.3388C11.9346 17.4145 11.7784 17.5427 11.6685 17.7071C11.5587 17.8716 11.5 18.0649 11.5 18.2627C11.5 18.5279 11.6054 18.7823 11.7929 18.9698C11.9804 19.1573 12.2348 19.2627 12.5 19.2627ZM17.5 19.2627C17.6978 19.2627 17.8911 19.204 18.0556 19.0942C18.22 18.9843 18.3482 18.8281 18.4239 18.6454C18.4996 18.4627 18.5194 18.2616 18.4808 18.0676C18.4422 17.8736 18.347 17.6954 18.2071 17.5556C18.0673 17.4157 17.8891 17.3205 17.6951 17.2819C17.5011 17.2433 17.3 17.2631 17.1173 17.3388C16.9346 17.4145 16.7784 17.5427 16.6685 17.7071C16.5587 17.8716 16.5 18.0649 16.5 18.2627C16.5 18.5279 16.6054 18.7823 16.7929 18.9698C16.9804 19.1573 17.2348 19.2627 17.5 19.2627ZM17.5 15.2627C17.6978 15.2627 17.8911 15.204 18.0556 15.0942C18.22 14.9843 18.3482 14.8281 18.4239 14.6454C18.4996 14.4627 18.5194 14.2616 18.4808 14.0676C18.4422 13.8736 18.347 13.6954 18.2071 13.5556C18.0673 13.4157 17.8891 13.3205 17.6951 13.2819C17.5011 13.2433 17.3 13.2631 17.1173 13.3388C16.9346 13.4145 16.7784 13.5427 16.6685 13.7071C16.5587 13.8716 16.5 14.0649 16.5 14.2627C16.5 14.5279 16.6054 14.7823 16.7929 14.9698C16.9804 15.1573 17.2348 15.2627 17.5 15.2627ZM12.5 15.2627C12.6978 15.2627 12.8911 15.204 13.0556 15.0942C13.22 14.9843 13.3482 14.8281 13.4239 14.6454C13.4996 14.4627 13.5194 14.2616 13.4808 14.0676C13.4422 13.8736 13.347 13.6954 13.2071 13.5556C13.0673 13.4157 12.8891 13.3205 12.6951 13.2819C12.5011 13.2433 12.3 13.2631 12.1173 13.3388C11.9346 13.4145 11.7784 13.5427 11.6685 13.7071C11.5587 13.8716 11.5 14.0649 11.5 14.2627C11.5 14.5279 11.6054 14.7823 11.7929 14.9698C11.9804 15.1573 12.2348 15.2627 12.5 15.2627ZM19.5 3.2627H18.5V2.2627C18.5 1.99748 18.3946 1.74312 18.2071 1.55559C18.0196 1.36805 17.7652 1.2627 17.5 1.2627C17.2348 1.2627 16.9804 1.36805 16.7929 1.55559C16.6054 1.74312 16.5 1.99748 16.5 2.2627V3.2627H8.5V2.2627C8.5 1.99748 8.39464 1.74312 8.20711 1.55559C8.01957 1.36805 7.76522 1.2627 7.5 1.2627C7.23478 1.2627 6.98043 1.36805 6.79289 1.55559C6.60536 1.74312 6.5 1.99748 6.5 2.2627V3.2627H5.5C4.70435 3.2627 3.94129 3.57877 3.37868 4.14137C2.81607 4.70398 2.5 5.46705 2.5 6.26269V20.2627C2.5 21.0583 2.81607 21.8214 3.37868 22.384C3.94129 22.9466 4.70435 23.2627 5.5 23.2627H19.5C20.2957 23.2627 21.0587 22.9466 21.6213 22.384C22.1839 21.8214 22.5 21.0583 22.5 20.2627V6.26269C22.5 5.46705 22.1839 4.70398 21.6213 4.14137C21.0587 3.57877 20.2957 3.2627 19.5 3.2627ZM20.5 20.2627C20.5 20.5279 20.3946 20.7823 20.2071 20.9698C20.0196 21.1573 19.7652 21.2627 19.5 21.2627H5.5C5.23478 21.2627 4.98043 21.1573 4.79289 20.9698C4.60536 20.7823 4.5 20.5279 4.5 20.2627V11.2627H20.5V20.2627ZM20.5 9.26269H4.5V6.26269C4.5 5.99748 4.60536 5.74312 4.79289 5.55559C4.98043 5.36805 5.23478 5.2627 5.5 5.2627H6.5V6.26269C6.5 6.52791 6.60536 6.78227 6.79289 6.9698C6.98043 7.15734 7.23478 7.26269 7.5 7.26269C7.76522 7.26269 8.01957 7.15734 8.20711 6.9698C8.39464 6.78227 8.5 6.52791 8.5 6.26269V5.2627H16.5V6.26269C16.5 6.52791 16.6054 6.78227 16.7929 6.9698C16.9804 7.15734 17.2348 7.26269 17.5 7.26269C17.7652 7.26269 18.0196 7.15734 18.2071 6.9698C18.3946 6.78227 18.5 6.52791 18.5 6.26269V5.2627H19.5C19.7652 5.2627 20.0196 5.36805 20.2071 5.55559C20.3946 5.74312 20.5 5.99748 20.5 6.26269V9.26269ZM7.5 15.2627C7.69778 15.2627 7.89112 15.204 8.05557 15.0942C8.22002 14.9843 8.34819 14.8281 8.42388 14.6454C8.49957 14.4627 8.51937 14.2616 8.48079 14.0676C8.4422 13.8736 8.34696 13.6954 8.20711 13.5556C8.06725 13.4157 7.88907 13.3205 7.69509 13.2819C7.50111 13.2433 7.30004 13.2631 7.11732 13.3388C6.93459 13.4145 6.77841 13.5427 6.66853 13.7071C6.55865 13.8716 6.5 14.0649 6.5 14.2627C6.5 14.5279 6.60536 14.7823 6.79289 14.9698C6.98043 15.1573 7.23478 15.2627 7.5 15.2627ZM7.5 19.2627C7.69778 19.2627 7.89112 19.204 8.05557 19.0942C8.22002 18.9843 8.34819 18.8281 8.42388 18.6454C8.49957 18.4627 8.51937 18.2616 8.48079 18.0676C8.4422 17.8736 8.34696 17.6954 8.20711 17.5556C8.06725 17.4157 7.88907 17.3205 7.69509 17.2819C7.50111 17.2433 7.30004 17.2631 7.11732 17.3388C6.93459 17.4145 6.77841 17.5427 6.66853 17.7071C6.55865 17.8716 6.5 18.0649 6.5 18.2627C6.5 18.5279 6.60536 18.7823 6.79289 18.9698C6.98043 19.1573 7.23478 19.2627 7.5 19.2627Z" fill="#E6E9EB"/>
<path d="M12.5 19.2627C12.6978 19.2627 12.8911 19.204 13.0556 19.0942C13.22 18.9843 13.3482 18.8281 13.4239 18.6454C13.4996 18.4627 13.5194 18.2616 13.4808 18.0676C13.4422 17.8736 13.347 17.6954 13.2071 17.5556C13.0673 17.4157 12.8891 17.3205 12.6951 17.2819C12.5011 17.2433 12.3 17.2631 12.1173 17.3388C11.9346 17.4145 11.7784 17.5427 11.6685 17.7071C11.5587 17.8716 11.5 18.0649 11.5 18.2627C11.5 18.5279 11.6054 18.7823 11.7929 18.9698C11.9804 19.1573 12.2348 19.2627 12.5 19.2627ZM17.5 19.2627C17.6978 19.2627 17.8911 19.204 18.0556 19.0942C18.22 18.9843 18.3482 18.8281 18.4239 18.6454C18.4996 18.4627 18.5194 18.2616 18.4808 18.0676C18.4422 17.8736 18.347 17.6954 18.2071 17.5556C18.0673 17.4157 17.8891 17.3205 17.6951 17.2819C17.5011 17.2433 17.3 17.2631 17.1173 17.3388C16.9346 17.4145 16.7784 17.5427 16.6685 17.7071C16.5587 17.8716 16.5 18.0649 16.5 18.2627C16.5 18.5279 16.6054 18.7823 16.7929 18.9698C16.9804 19.1573 17.2348 19.2627 17.5 19.2627ZM17.5 15.2627C17.6978 15.2627 17.8911 15.204 18.0556 15.0942C18.22 14.9843 18.3482 14.8281 18.4239 14.6454C18.4996 14.4627 18.5194 14.2616 18.4808 14.0676C18.4422 13.8736 18.347 13.6954 18.2071 13.5556C18.0673 13.4157 17.8891 13.3205 17.6951 13.2819C17.5011 13.2433 17.3 13.2631 17.1173 13.3388C16.9346 13.4145 16.7784 13.5427 16.6685 13.7071C16.5587 13.8716 16.5 14.0649 16.5 14.2627C16.5 14.5279 16.6054 14.7823 16.7929 14.9698C16.9804 15.1573 17.2348 15.2627 17.5 15.2627ZM12.5 15.2627C12.6978 15.2627 12.8911 15.204 13.0556 15.0942C13.22 14.9843 13.3482 14.8281 13.4239 14.6454C13.4996 14.4627 13.5194 14.2616 13.4808 14.0676C13.4422 13.8736 13.347 13.6954 13.2071 13.5556C13.0673 13.4157 12.8891 13.3205 12.6951 13.2819C12.5011 13.2433 12.3 13.2631 12.1173 13.3388C11.9346 13.4145 11.7784 13.5427 11.6685 13.7071C11.5587 13.8716 11.5 14.0649 11.5 14.2627C11.5 14.5279 11.6054 14.7823 11.7929 14.9698C11.9804 15.1573 12.2348 15.2627 12.5 15.2627ZM19.5 3.2627H18.5V2.2627C18.5 1.99748 18.3946 1.74312 18.2071 1.55559C18.0196 1.36805 17.7652 1.2627 17.5 1.2627C17.2348 1.2627 16.9804 1.36805 16.7929 1.55559C16.6054 1.74312 16.5 1.99748 16.5 2.2627V3.2627H8.5V2.2627C8.5 1.99748 8.39464 1.74312 8.20711 1.55559C8.01957 1.36805 7.76522 1.2627 7.5 1.2627C7.23478 1.2627 6.98043 1.36805 6.79289 1.55559C6.60536 1.74312 6.5 1.99748 6.5 2.2627V3.2627H5.5C4.70435 3.2627 3.94129 3.57877 3.37868 4.14137C2.81607 4.70398 2.5 5.46705 2.5 6.26269V20.2627C2.5 21.0583 2.81607 21.8214 3.37868 22.384C3.94129 22.9466 4.70435 23.2627 5.5 23.2627H19.5C20.2957 23.2627 21.0587 22.9466 21.6213 22.384C22.1839 21.8214 22.5 21.0583 22.5 20.2627V6.26269C22.5 5.46705 22.1839 4.70398 21.6213 4.14137C21.0587 3.57877 20.2957 3.2627 19.5 3.2627ZM20.5 20.2627C20.5 20.5279 20.3946 20.7823 20.2071 20.9698C20.0196 21.1573 19.7652 21.2627 19.5 21.2627H5.5C5.23478 21.2627 4.98043 21.1573 4.79289 20.9698C4.60536 20.7823 4.5 20.5279 4.5 20.2627V11.2627H20.5V20.2627ZM20.5 9.26269H4.5V6.26269C4.5 5.99748 4.60536 5.74312 4.79289 5.55559C4.98043 5.36805 5.23478 5.2627 5.5 5.2627H6.5V6.26269C6.5 6.52791 6.60536 6.78227 6.79289 6.9698C6.98043 7.15734 7.23478 7.26269 7.5 7.26269C7.76522 7.26269 8.01957 7.15734 8.20711 6.9698C8.39464 6.78227 8.5 6.52791 8.5 6.26269V5.2627H16.5V6.26269C16.5 6.52791 16.6054 6.78227 16.7929 6.9698C16.9804 7.15734 17.2348 7.26269 17.5 7.26269C17.7652 7.26269 18.0196 7.15734 18.2071 6.9698C18.3946 6.78227 18.5 6.52791 18.5 6.26269V5.2627H19.5C19.7652 5.2627 20.0196 5.36805 20.2071 5.55559C20.3946 5.74312 20.5 5.99748 20.5 6.26269V9.26269ZM7.5 15.2627C7.69778 15.2627 7.89112 15.204 8.05557 15.0942C8.22002 14.9843 8.34819 14.8281 8.42388 14.6454C8.49957 14.4627 8.51937 14.2616 8.48079 14.0676C8.4422 13.8736 8.34696 13.6954 8.20711 13.5556C8.06725 13.4157 7.88907 13.3205 7.69509 13.2819C7.50111 13.2433 7.30004 13.2631 7.11732 13.3388C6.93459 13.4145 6.77841 13.5427 6.66853 13.7071C6.55865 13.8716 6.5 14.0649 6.5 14.2627C6.5 14.5279 6.60536 14.7823 6.79289 14.9698C6.98043 15.1573 7.23478 15.2627 7.5 15.2627ZM7.5 19.2627C7.69778 19.2627 7.89112 19.204 8.05557 19.0942C8.22002 18.9843 8.34819 18.8281 8.42388 18.6454C8.49957 18.4627 8.51937 18.2616 8.48079 18.0676C8.4422 17.8736 8.34696 17.6954 8.20711 17.5556C8.06725 17.4157 7.88907 17.3205 7.69509 17.2819C7.50111 17.2433 7.30004 17.2631 7.11732 17.3388C6.93459 17.4145 6.77841 17.5427 6.66853 17.7071C6.55865 17.8716 6.5 18.0649 6.5 18.2627C6.5 18.5279 6.60536 18.7823 6.79289 18.9698C6.98043 19.1573 7.23478 19.2627 7.5 19.2627Z" fill="white" fill-opacity="0.8"/>
</g>
<defs>
<clipPath id="clip0_11423_34486">
<rect width="24" height="24" fill="white" transform="translate(0.5 0.262695)"/>
</clipPath>
</defs>
</svg>
