<svg width="20" height="21" viewBox="0 0 20 21" fill="none" xmlns="http://www.w3.org/2000/svg">
<g clip-path="url(#clip0_12187_3695)">
<path fill-rule="evenodd" clip-rule="evenodd" d="M4.16699 17.1667H8.33366C8.55467 17.1667 8.76663 17.2545 8.92291 17.4108C9.07919 17.567 9.16699 17.779 9.16699 18C9.16699 18.221 9.07919 18.433 8.92291 18.5893C8.76663 18.7456 8.55467 18.8334 8.33366 18.8334H4.16699C3.50395 18.8334 2.86807 18.57 2.39923 18.1011C1.93038 17.6323 1.66699 16.9964 1.66699 16.3334V4.66669C1.66699 4.00365 1.93038 3.36776 2.39923 2.89892C2.86807 2.43008 3.50395 2.16669 4.16699 2.16669H9.21699L9.45033 2.25002C9.4752 2.24649 9.50045 2.24649 9.52533 2.25002C9.61101 2.29009 9.68977 2.34353 9.75866 2.40835L14.7587 7.40835C14.8743 7.52554 14.9526 7.67435 14.9838 7.83601C15.0149 7.99767 14.9975 8.16493 14.9337 8.31669C14.8711 8.46887 14.765 8.59914 14.6285 8.69109C14.4921 8.78303 14.3315 8.83253 14.167 8.83335H10.8337C10.1706 8.83335 9.53473 8.56996 9.06589 8.10112C8.59705 7.63228 8.33366 6.9964 8.33366 6.33335V3.83335H4.16699C3.94598 3.83335 3.73402 3.92115 3.57774 4.07743C3.42146 4.23371 3.33366 4.44567 3.33366 4.66669V16.3334C3.33366 16.5544 3.42146 16.7663 3.57774 16.9226C3.73402 17.0789 3.94598 17.1667 4.16699 17.1667ZM12.1587 7.16669L10.0003 5.00835V6.33335C10.0003 6.55437 10.0881 6.76633 10.2444 6.92261C10.4007 7.07889 10.6126 7.16669 10.8337 7.16669H12.1587ZM10.5896 10.7441C10.7459 10.9004 10.8337 11.1123 10.8337 11.3334C10.8337 11.5544 10.7459 11.7663 10.5896 11.9226C10.4333 12.0789 10.2213 12.1667 10.0003 12.1667H5.83366C5.61264 12.1667 5.40068 12.0789 5.2444 11.9226C5.08812 11.7663 5.00033 11.5544 5.00033 11.3334C5.00033 11.1123 5.08812 10.9004 5.2444 10.7441C5.40068 10.5878 5.61264 10.5 5.83366 10.5H10.0003C10.2213 10.5 10.4333 10.5878 10.5896 10.7441ZM6.66699 8.83335H5.83366C5.61264 8.83335 5.40068 8.74556 5.2444 8.58928C5.08812 8.433 5.00033 8.22103 5.00033 8.00002C5.00033 7.77901 5.08812 7.56705 5.2444 7.41077C5.40068 7.25448 5.61264 7.16669 5.83366 7.16669H6.66699C6.88801 7.16669 7.09997 7.25448 7.25625 7.41077C7.41253 7.56705 7.50033 7.77901 7.50033 8.00002C7.50033 8.22103 7.41253 8.433 7.25625 8.58928C7.09997 8.74556 6.88801 8.83335 6.66699 8.83335ZM5.2444 14.0774C5.40068 13.9212 5.61264 13.8334 5.83366 13.8334H7.50033C7.72134 13.8334 7.9333 13.9212 8.08958 14.0774C8.24586 14.2337 8.33366 14.4457 8.33366 14.6667C8.33366 14.8877 8.24586 15.0997 8.08958 15.2559C7.9333 15.4122 7.72134 15.5 7.50033 15.5H5.83366C5.61264 15.5 5.40068 15.4122 5.2444 15.2559C5.08812 15.0997 5.00033 14.8877 5.00033 14.6667C5.00033 14.4457 5.08812 14.2337 5.2444 14.0774ZM16.2918 14.648C17.0042 14.5579 18.4291 14.4229 18.9287 14.9139C19.3586 15.3436 19.2562 16.4975 18.2121 16.4975C17.6061 16.4975 16.7012 16.2192 15.9273 15.8019C15.2051 15.9222 14.4065 16.1925 13.6384 16.4525C13.4659 16.5109 13.2949 16.5688 13.1266 16.6243C11.0752 20.1597 9.87553 18.5475 10.0106 17.901C10.1744 17.0826 11.28 16.432 12.0989 16.0106C12.5288 15.2577 13.1389 13.9442 13.5484 12.9662C13.2454 11.7959 13.0816 10.8793 13.2618 10.2206C13.4583 9.4963 14.8341 9.38991 15.0061 10.462C15.1929 11.0737 14.9591 12.0364 14.7992 12.6949C14.7943 12.7147 14.7896 12.7342 14.7849 12.7534C15.1166 13.625 15.5875 14.2183 16.2918 14.648ZM11.9313 16.783C11.6097 17.0695 10.9969 17.6152 10.8173 18.0974C10.8173 18.1261 11.2841 17.9051 12.062 16.6653C12.0283 16.6967 11.9836 16.7365 11.9313 16.783ZM14.1585 10.2983C14.4615 10.2983 14.4328 11.6118 14.2322 11.9678C14.052 11.399 14.0561 10.2983 14.1585 10.2983ZM14.1708 13.6495C13.8964 14.3738 13.5566 15.1963 13.1594 15.8878C13.3173 15.8273 13.4804 15.7603 13.6492 15.6909C14.1764 15.4744 14.7581 15.2354 15.4032 15.1022C14.9446 14.7625 14.5106 14.2674 14.1708 13.6495ZM18.5479 15.6832C18.5479 15.6832 18.3432 15.9287 17.0206 15.364C18.4578 15.2577 18.6953 15.585 18.5479 15.6832Z" fill="#0054A4"/>
<path fill-rule="evenodd" clip-rule="evenodd" d="M4.16699 17.1667H8.33366C8.55467 17.1667 8.76663 17.2545 8.92291 17.4108C9.07919 17.567 9.16699 17.779 9.16699 18C9.16699 18.221 9.07919 18.433 8.92291 18.5893C8.76663 18.7456 8.55467 18.8334 8.33366 18.8334H4.16699C3.50395 18.8334 2.86807 18.57 2.39923 18.1011C1.93038 17.6323 1.66699 16.9964 1.66699 16.3334V4.66669C1.66699 4.00365 1.93038 3.36776 2.39923 2.89892C2.86807 2.43008 3.50395 2.16669 4.16699 2.16669H9.21699L9.45033 2.25002C9.4752 2.24649 9.50045 2.24649 9.52533 2.25002C9.61101 2.29009 9.68977 2.34353 9.75866 2.40835L14.7587 7.40835C14.8743 7.52554 14.9526 7.67435 14.9838 7.83601C15.0149 7.99767 14.9975 8.16493 14.9337 8.31669C14.8711 8.46887 14.765 8.59914 14.6285 8.69109C14.4921 8.78303 14.3315 8.83253 14.167 8.83335H10.8337C10.1706 8.83335 9.53473 8.56996 9.06589 8.10112C8.59705 7.63228 8.33366 6.9964 8.33366 6.33335V3.83335H4.16699C3.94598 3.83335 3.73402 3.92115 3.57774 4.07743C3.42146 4.23371 3.33366 4.44567 3.33366 4.66669V16.3334C3.33366 16.5544 3.42146 16.7663 3.57774 16.9226C3.73402 17.0789 3.94598 17.1667 4.16699 17.1667ZM12.1587 7.16669L10.0003 5.00835V6.33335C10.0003 6.55437 10.0881 6.76633 10.2444 6.92261C10.4007 7.07889 10.6126 7.16669 10.8337 7.16669H12.1587ZM10.5896 10.7441C10.7459 10.9004 10.8337 11.1123 10.8337 11.3334C10.8337 11.5544 10.7459 11.7663 10.5896 11.9226C10.4333 12.0789 10.2213 12.1667 10.0003 12.1667H5.83366C5.61264 12.1667 5.40068 12.0789 5.2444 11.9226C5.08812 11.7663 5.00033 11.5544 5.00033 11.3334C5.00033 11.1123 5.08812 10.9004 5.2444 10.7441C5.40068 10.5878 5.61264 10.5 5.83366 10.5H10.0003C10.2213 10.5 10.4333 10.5878 10.5896 10.7441ZM6.66699 8.83335H5.83366C5.61264 8.83335 5.40068 8.74556 5.2444 8.58928C5.08812 8.433 5.00033 8.22103 5.00033 8.00002C5.00033 7.77901 5.08812 7.56705 5.2444 7.41077C5.40068 7.25448 5.61264 7.16669 5.83366 7.16669H6.66699C6.88801 7.16669 7.09997 7.25448 7.25625 7.41077C7.41253 7.56705 7.50033 7.77901 7.50033 8.00002C7.50033 8.22103 7.41253 8.433 7.25625 8.58928C7.09997 8.74556 6.88801 8.83335 6.66699 8.83335ZM5.2444 14.0774C5.40068 13.9212 5.61264 13.8334 5.83366 13.8334H7.50033C7.72134 13.8334 7.9333 13.9212 8.08958 14.0774C8.24586 14.2337 8.33366 14.4457 8.33366 14.6667C8.33366 14.8877 8.24586 15.0997 8.08958 15.2559C7.9333 15.4122 7.72134 15.5 7.50033 15.5H5.83366C5.61264 15.5 5.40068 15.4122 5.2444 15.2559C5.08812 15.0997 5.00033 14.8877 5.00033 14.6667C5.00033 14.4457 5.08812 14.2337 5.2444 14.0774ZM16.2918 14.648C17.0042 14.5579 18.4291 14.4229 18.9287 14.9139C19.3586 15.3436 19.2562 16.4975 18.2121 16.4975C17.6061 16.4975 16.7012 16.2192 15.9273 15.8019C15.2051 15.9222 14.4065 16.1925 13.6384 16.4525C13.4659 16.5109 13.2949 16.5688 13.1266 16.6243C11.0752 20.1597 9.87553 18.5475 10.0106 17.901C10.1744 17.0826 11.28 16.432 12.0989 16.0106C12.5288 15.2577 13.1389 13.9442 13.5484 12.9662C13.2454 11.7959 13.0816 10.8793 13.2618 10.2206C13.4583 9.4963 14.8341 9.38991 15.0061 10.462C15.1929 11.0737 14.9591 12.0364 14.7992 12.6949C14.7943 12.7147 14.7896 12.7342 14.7849 12.7534C15.1166 13.625 15.5875 14.2183 16.2918 14.648ZM11.9313 16.783C11.6097 17.0695 10.9969 17.6152 10.8173 18.0974C10.8173 18.1261 11.2841 17.9051 12.062 16.6653C12.0283 16.6967 11.9836 16.7365 11.9313 16.783ZM14.1585 10.2983C14.4615 10.2983 14.4328 11.6118 14.2322 11.9678C14.052 11.399 14.0561 10.2983 14.1585 10.2983ZM14.1708 13.6495C13.8964 14.3738 13.5566 15.1963 13.1594 15.8878C13.3173 15.8273 13.4804 15.7603 13.6492 15.6909C14.1764 15.4744 14.7581 15.2354 15.4032 15.1022C14.9446 14.7625 14.5106 14.2674 14.1708 13.6495ZM18.5479 15.6832C18.5479 15.6832 18.3432 15.9287 17.0206 15.364C18.4578 15.2577 18.6953 15.585 18.5479 15.6832Z" fill="black" fill-opacity="0.8"/>
<path fill-rule="evenodd" clip-rule="evenodd" d="M4.16699 17.1667H8.33366C8.55467 17.1667 8.76663 17.2545 8.92291 17.4108C9.07919 17.567 9.16699 17.779 9.16699 18C9.16699 18.221 9.07919 18.433 8.92291 18.5893C8.76663 18.7456 8.55467 18.8334 8.33366 18.8334H4.16699C3.50395 18.8334 2.86807 18.57 2.39923 18.1011C1.93038 17.6323 1.66699 16.9964 1.66699 16.3334V4.66669C1.66699 4.00365 1.93038 3.36776 2.39923 2.89892C2.86807 2.43008 3.50395 2.16669 4.16699 2.16669H9.21699L9.45033 2.25002C9.4752 2.24649 9.50045 2.24649 9.52533 2.25002C9.61101 2.29009 9.68977 2.34353 9.75866 2.40835L14.7587 7.40835C14.8743 7.52554 14.9526 7.67435 14.9838 7.83601C15.0149 7.99767 14.9975 8.16493 14.9337 8.31669C14.8711 8.46887 14.765 8.59914 14.6285 8.69109C14.4921 8.78303 14.3315 8.83253 14.167 8.83335H10.8337C10.1706 8.83335 9.53473 8.56996 9.06589 8.10112C8.59705 7.63228 8.33366 6.9964 8.33366 6.33335V3.83335H4.16699C3.94598 3.83335 3.73402 3.92115 3.57774 4.07743C3.42146 4.23371 3.33366 4.44567 3.33366 4.66669V16.3334C3.33366 16.5544 3.42146 16.7663 3.57774 16.9226C3.73402 17.0789 3.94598 17.1667 4.16699 17.1667ZM12.1587 7.16669L10.0003 5.00835V6.33335C10.0003 6.55437 10.0881 6.76633 10.2444 6.92261C10.4007 7.07889 10.6126 7.16669 10.8337 7.16669H12.1587ZM10.5896 10.7441C10.7459 10.9004 10.8337 11.1123 10.8337 11.3334C10.8337 11.5544 10.7459 11.7663 10.5896 11.9226C10.4333 12.0789 10.2213 12.1667 10.0003 12.1667H5.83366C5.61264 12.1667 5.40068 12.0789 5.2444 11.9226C5.08812 11.7663 5.00033 11.5544 5.00033 11.3334C5.00033 11.1123 5.08812 10.9004 5.2444 10.7441C5.40068 10.5878 5.61264 10.5 5.83366 10.5H10.0003C10.2213 10.5 10.4333 10.5878 10.5896 10.7441ZM6.66699 8.83335H5.83366C5.61264 8.83335 5.40068 8.74556 5.2444 8.58928C5.08812 8.433 5.00033 8.22103 5.00033 8.00002C5.00033 7.77901 5.08812 7.56705 5.2444 7.41077C5.40068 7.25448 5.61264 7.16669 5.83366 7.16669H6.66699C6.88801 7.16669 7.09997 7.25448 7.25625 7.41077C7.41253 7.56705 7.50033 7.77901 7.50033 8.00002C7.50033 8.22103 7.41253 8.433 7.25625 8.58928C7.09997 8.74556 6.88801 8.83335 6.66699 8.83335ZM5.2444 14.0774C5.40068 13.9212 5.61264 13.8334 5.83366 13.8334H7.50033C7.72134 13.8334 7.9333 13.9212 8.08958 14.0774C8.24586 14.2337 8.33366 14.4457 8.33366 14.6667C8.33366 14.8877 8.24586 15.0997 8.08958 15.2559C7.9333 15.4122 7.72134 15.5 7.50033 15.5H5.83366C5.61264 15.5 5.40068 15.4122 5.2444 15.2559C5.08812 15.0997 5.00033 14.8877 5.00033 14.6667C5.00033 14.4457 5.08812 14.2337 5.2444 14.0774ZM16.2918 14.648C17.0042 14.5579 18.4291 14.4229 18.9287 14.9139C19.3586 15.3436 19.2562 16.4975 18.2121 16.4975C17.6061 16.4975 16.7012 16.2192 15.9273 15.8019C15.2051 15.9222 14.4065 16.1925 13.6384 16.4525C13.4659 16.5109 13.2949 16.5688 13.1266 16.6243C11.0752 20.1597 9.87553 18.5475 10.0106 17.901C10.1744 17.0826 11.28 16.432 12.0989 16.0106C12.5288 15.2577 13.1389 13.9442 13.5484 12.9662C13.2454 11.7959 13.0816 10.8793 13.2618 10.2206C13.4583 9.4963 14.8341 9.38991 15.0061 10.462C15.1929 11.0737 14.9591 12.0364 14.7992 12.6949C14.7943 12.7147 14.7896 12.7342 14.7849 12.7534C15.1166 13.625 15.5875 14.2183 16.2918 14.648ZM11.9313 16.783C11.6097 17.0695 10.9969 17.6152 10.8173 18.0974C10.8173 18.1261 11.2841 17.9051 12.062 16.6653C12.0283 16.6967 11.9836 16.7365 11.9313 16.783ZM14.1585 10.2983C14.4615 10.2983 14.4328 11.6118 14.2322 11.9678C14.052 11.399 14.0561 10.2983 14.1585 10.2983ZM14.1708 13.6495C13.8964 14.3738 13.5566 15.1963 13.1594 15.8878C13.3173 15.8273 13.4804 15.7603 13.6492 15.6909C14.1764 15.4744 14.7581 15.2354 15.4032 15.1022C14.9446 14.7625 14.5106 14.2674 14.1708 13.6495ZM18.5479 15.6832C18.5479 15.6832 18.3432 15.9287 17.0206 15.364C18.4578 15.2577 18.6953 15.585 18.5479 15.6832Z" fill="white" fill-opacity="0.2"/>
</g>
<defs>
<clipPath id="clip0_12187_3695">
<rect width="20" height="20" fill="white" transform="translate(0 0.5)"/>
</clipPath>
</defs>
</svg>
