<svg width="20" height="20" viewBox="0 0 20 20" fill="none"
     xmlns="http://www.w3.org/2000/svg">
    <g clip-path="url(#clip0_11343_47669)">
        <path d="M18.0921 16.9079L15.0004 13.8412C16.2005 12.3449 16.7817 10.4456 16.6244 8.53393C16.4672 6.62227 15.5835 4.8435 14.155 3.56339C12.7266 2.28327 10.8619 1.59911 8.94451 1.65157C7.02711 1.70404 5.20268 2.48915 3.84636 3.84547C2.49004 5.20178 1.70493 7.02622 1.65247 8.94362C1.6 10.861 2.28416 12.7257 3.56428 14.1541C4.84439 15.5826 6.62316 16.4663 8.53483 16.6235C10.4465 16.7808 12.3458 16.1996 13.8421 14.9995L16.9087 18.0662C16.9862 18.1443 17.0784 18.2063 17.1799 18.2486C17.2815 18.2909 17.3904 18.3127 17.5004 18.3127C17.6104 18.3127 17.7193 18.2909 17.8209 18.2486C17.9224 18.2063 18.0146 18.1443 18.0921 18.0662C18.2423 17.9108 18.3262 17.7031 18.3262 17.487C18.3262 17.2709 18.2423 17.0632 18.0921 16.9079ZM9.16708 14.9995C8.01335 14.9995 6.88554 14.6574 5.92625 14.0164C4.96696 13.3754 4.21929 12.4644 3.77778 11.3985C3.33627 10.3326 3.22075 9.15971 3.44583 8.02816C3.67091 6.8966 4.22648 5.8572 5.04229 5.04139C5.85809 4.22559 6.89749 3.67002 8.02905 3.44494C9.1606 3.21985 10.3335 3.33537 11.3994 3.77689C12.4653 4.2184 13.3763 4.96607 14.0173 5.92536C14.6583 6.88464 15.0004 8.01246 15.0004 9.16618C15.0004 10.7133 14.3858 12.197 13.2919 13.291C12.1979 14.3849 10.7142 14.9995 9.16708 14.9995Z"
              fill="#000"/>
    </g>
    <defs>
        <clipPath id="clip0_11343_47669">
            <rect width="20" height="20" fill="white"/>
        </clipPath>
    </defs>
</svg>
